<?xml version="1.0" encoding="UTF-8"?>
<!DOCTYPE svg PUBLIC "-//W3C//DTD SVG 1.1//EN" "http://www.w3.org/Graphics/SVG/1.1/DTD/svg11.dtd">
<svg xmlns="http://www.w3.org/2000/svg" version="1.1" width="1080px" height="1080px" style="shape-rendering:geometricPrecision; text-rendering:geometricPrecision; image-rendering:optimizeQuality; fill-rule:evenodd; clip-rule:evenodd" xmlns:xlink="http://www.w3.org/1999/xlink">
<g><path style="opacity:1" fill="#6860c0" d="M 525.5,-0.5 C 536.167,-0.5 546.833,-0.5 557.5,-0.5C 559.102,1.07394 561.102,1.74061 563.5,1.5C 582.035,3.68074 600.701,5.3474 619.5,6.5C 619.833,6.5 620.167,6.5 620.5,6.5C 623.874,8.06992 627.541,9.23659 631.5,10C 635.486,10.4988 639.486,10.6655 643.5,10.5C 643.833,10.5 644.167,10.5 644.5,10.5C 646.988,12.3878 649.988,13.0545 653.5,12.5C 655.027,12.427 656.027,13.0937 656.5,14.5C 667.133,16.8331 677.799,19.1664 688.5,21.5C 688.611,22.1174 688.944,22.6174 689.5,23C 693.752,24.3353 698.086,25.1687 702.5,25.5C 702.611,26.1174 702.944,26.6174 703.5,27C 707.065,28.3569 710.732,29.1902 714.5,29.5C 716.142,31.0808 718.142,31.7475 720.5,31.5C 720.953,32.4584 721.619,33.2917 722.5,34C 726.103,35.4793 729.77,36.646 733.5,37.5C 741.999,39.8741 750.333,42.7074 758.5,46C 762.643,47.9941 766.643,50.1608 770.5,52.5C 773.698,55.1248 777.365,56.7915 781.5,57.5C 781.721,58.7348 782.388,59.7348 783.5,60.5C 786.684,62.1099 790.017,63.1099 793.5,63.5C 797.076,65.3492 800.743,67.3492 804.5,69.5C 804.5,70.5 804.5,71.5 804.5,72.5C 809.653,74.2479 814.653,76.2479 819.5,78.5C 820.446,81.3126 822.446,82.646 825.5,82.5C 828.83,84.1616 832.164,85.8283 835.5,87.5C 849.705,97.1045 863.371,107.438 876.5,118.5C 877.539,120.531 879.205,121.864 881.5,122.5C 984.045,207.542 1047.55,315.875 1072,447.5C 1075.19,468.567 1077.69,489.567 1079.5,510.5C 1079.5,527.5 1079.5,544.5 1079.5,561.5C 1070.25,714.325 1009.25,841.991 896.5,944.5C 878.833,944.5 861.167,944.5 843.5,944.5C 843.5,933.167 843.5,921.833 843.5,910.5C 820.833,910.5 798.167,910.5 775.5,910.5C 775.5,899.5 775.5,888.5 775.5,877.5C 753.167,877.5 730.833,877.5 708.5,877.5C 708.5,877.167 708.5,876.833 708.5,876.5C 708.5,854.167 708.5,831.833 708.5,809.5C 719.833,809.5 731.167,809.5 742.5,809.5C 742.5,787.167 742.5,764.833 742.5,742.5C 742.5,742.167 742.5,741.833 742.5,741.5C 753.5,741.5 764.5,741.5 775.5,741.5C 776.499,697.003 776.832,652.336 776.5,607.5C 787.679,607.828 798.679,607.495 809.5,606.5C 809.5,505.5 809.5,404.5 809.5,303.5C 798.679,302.505 787.679,302.172 776.5,302.5C 776.831,279.994 776.497,257.66 775.5,235.5C 753.167,235.5 730.833,235.5 708.5,235.5C 708.5,224.5 708.5,213.5 708.5,202.5C 686.34,201.503 664.006,201.169 641.5,201.5C 641.828,190.321 641.495,179.321 640.5,168.5C 584.5,168.5 528.5,168.5 472.5,168.5C 471.505,179.321 471.172,190.321 471.5,201.5C 448.994,201.169 426.66,201.503 404.5,202.5C 404.5,213.5 404.5,224.5 404.5,235.5C 381.833,235.5 359.167,235.5 336.5,235.5C 336.5,246.833 336.5,258.167 336.5,269.5C 325.5,269.5 314.5,269.5 303.5,269.5C 303.5,325.5 303.5,381.5 303.5,437.5C 314.321,438.495 325.321,438.828 336.5,438.5C 336.5,460.833 336.5,483.167 336.5,505.5C 325.321,505.172 314.321,505.505 303.5,506.5C 303.5,517.5 303.5,528.5 303.5,539.5C 314.833,539.5 326.167,539.5 337.5,539.5C 337.5,606.833 337.5,674.167 337.5,741.5C 348.5,741.5 359.5,741.5 370.5,741.5C 370.5,741.833 370.5,742.167 370.5,742.5C 370.5,764.833 370.5,787.167 370.5,809.5C 381.833,809.5 393.167,809.5 404.5,809.5C 404.5,820.5 404.5,831.5 404.5,842.5C 404.5,842.833 404.5,843.167 404.5,843.5C 393.167,843.5 381.833,843.5 370.5,843.5C 370.5,854.5 370.5,865.5 370.5,876.5C 370.5,876.833 370.5,877.167 370.5,877.5C 348.167,877.5 325.833,877.5 303.5,877.5C 303.5,888.5 303.5,899.5 303.5,910.5C 280.833,910.5 258.167,910.5 235.5,910.5C 235.5,921.833 235.5,933.167 235.5,944.5C 218.167,944.5 200.833,944.5 183.5,944.5C 175.508,937.841 167.841,930.841 160.5,923.5C 159.167,920.167 156.833,917.833 153.5,916.5C 135.361,898.032 118.695,878.366 103.5,857.5C 103.316,854.663 101.982,852.663 99.5,851.5C 97.2651,848.709 95.2651,845.709 93.5,842.5C 92.2504,839.994 91.5838,837.327 91.5,834.5C 89.6776,834.169 88.0109,833.502 86.5,832.5C 85.1667,830.167 83.8333,827.833 82.5,825.5C 80.4881,820.821 78.4881,816.154 76.5,811.5C 75.5,811.5 74.5,811.5 73.5,811.5C 67.6406,801.781 62.3073,791.781 57.5,781.5C 56.6346,775.353 54.4679,769.687 51,764.5C 50.3292,763.748 49.4959,763.414 48.5,763.5C 47.8333,761.833 47.1667,760.167 46.5,758.5C 46.2163,755.368 45.383,752.368 44,749.5C 43.6174,748.944 43.1174,748.611 42.5,748.5C 41.6908,746.972 41.0241,745.306 40.5,743.5C 40.5,741.5 40.5,739.5 40.5,737.5C 39.5,737.5 38.5,737.5 37.5,737.5C 35.6823,732.226 34.1823,726.893 33,721.5C 29.602,715.952 27.102,709.952 25.5,703.5C 25.3084,698.73 24.475,694.064 23,689.5C 20.7844,683.815 18.9511,678.149 17.5,672.5C 15.7612,667.424 14.5945,662.09 14,656.5C 13.6174,655.944 13.1174,655.611 12.5,655.5C 12.5,655.167 12.5,654.833 12.5,654.5C 12.665,651.15 12.4983,647.817 12,644.5C 11.6174,643.944 11.1174,643.611 10.5,643.5C 9.11855,635.334 8.28521,627.001 8,618.5C 7.23239,614.217 6.06573,610.217 4.5,606.5C 4.5,606.167 4.5,605.833 4.5,605.5C 3.11313,588.927 2.2798,572.26 2,555.5C 1.05722,552.749 0.223887,550.083 -0.5,547.5C -0.5,541.5 -0.5,535.5 -0.5,529.5C 0.232305,528.192 1.06564,526.858 2,525.5C 2.20803,513.788 2.70803,502.121 3.5,490.5C 6.80292,470.015 9.80292,449.348 12.5,428.5C 13.8274,423.747 15.1608,419.08 16.5,414.5C 20.1495,402.294 23.4829,389.96 26.5,377.5C 27.2679,375.285 27.9346,372.952 28.5,370.5C 31.4663,361.884 34.4663,353.217 37.5,344.5C 38.4584,344.047 39.2917,343.381 40,342.5C 41.3015,337.902 43.1348,333.569 45.5,329.5C 46.4742,327.257 46.8076,324.924 46.5,322.5C 47.1667,322.5 47.5,322.167 47.5,321.5C 51.5761,314.072 55.2428,306.406 58.5,298.5C 59.9418,297.18 60.6085,295.514 60.5,293.5C 61.1499,293.196 61.8165,292.863 62.5,292.5C 64.8647,287.771 67.1981,283.104 69.5,278.5C 71.1991,276.434 72.5324,274.1 73.5,271.5C 76.6247,265.565 79.9581,259.898 83.5,254.5C 85.5449,253.077 86.5449,251.077 86.5,248.5C 94.0593,236.421 102.393,224.754 111.5,213.5C 114.478,212.522 116.478,210.522 117.5,207.5C 117.5,207.167 117.5,206.833 117.5,206.5C 121.117,205.624 123.117,203.291 123.5,199.5C 124.401,198.71 125.068,197.71 125.5,196.5C 129.183,193.815 132.183,190.482 134.5,186.5C 137.478,183.511 140.145,180.177 142.5,176.5C 145.153,174.845 147.486,172.845 149.5,170.5C 149.281,169.325 149.614,168.325 150.5,167.5C 153.882,163.782 157.548,160.448 161.5,157.5C 164.279,156.391 165.946,154.391 166.5,151.5C 167.833,151.5 168.5,150.833 168.5,149.5C 172.022,148.151 174.689,145.818 176.5,142.5C 181.486,138.845 186.153,134.845 190.5,130.5C 193.822,128.503 196.822,126.17 199.5,123.5C 200.951,120.732 203.284,119.065 206.5,118.5C 211.853,114.474 216.853,110.141 221.5,105.5C 227.58,103.669 232.58,100.336 236.5,95.5C 240.129,93.2228 243.796,90.8895 247.5,88.5C 251.784,86.0884 255.784,83.4217 259.5,80.5C 259.833,79.8333 260.167,79.1667 260.5,78.5C 267.309,76.0141 273.642,72.6807 279.5,68.5C 280.183,66.8235 281.517,66.1568 283.5,66.5C 293.427,62.0057 303.427,57.5057 313.5,53C 314.252,52.3292 314.586,51.4959 314.5,50.5C 317.21,49.4942 319.876,48.4942 322.5,47.5C 326.664,46.5751 330.331,44.9084 333.5,42.5C 342.141,39.1154 350.807,35.6154 359.5,32C 363.121,30.8618 366.788,30.0284 370.5,29.5C 377.932,26.7816 385.598,24.615 393.5,23C 396.557,22.0835 399.224,20.5835 401.5,18.5C 406.033,17.3555 410.699,16.6888 415.5,16.5C 419.119,15.8195 422.786,15.3195 426.5,15C 427.381,14.2917 428.047,13.4584 428.5,12.5C 433.495,12.4071 438.161,11.4071 442.5,9.5C 443.167,9.5 443.833,9.5 444.5,9.5C 457.005,7.57813 469.671,6.41147 482.5,6C 486.573,4.97113 490.573,4.1378 494.5,3.5C 501.988,2.97786 509.322,2.31119 516.5,1.5C 519.727,1.32385 522.727,0.657188 525.5,-0.5 Z"/></g>
<g><path style="opacity:0.361" fill="#ccc9ea" d="M 557.5,-0.5 C 560.5,-0.5 563.5,-0.5 566.5,-0.5C 569.625,0.479442 572.958,0.812775 576.5,0.5C 576.5,0.833333 576.5,1.16667 576.5,1.5C 572.167,1.5 567.833,1.5 563.5,1.5C 561.102,1.74061 559.102,1.07394 557.5,-0.5 Z"/></g>
<g><path style="opacity:0.674" fill="#9b96d6" d="M 516.5,1.5 C 509.322,2.31119 501.988,2.97786 494.5,3.5C 494.918,2.77842 495.584,2.27842 496.5,2C 503.158,1.50042 509.825,1.33375 516.5,1.5 Z"/></g>
<g><path style="opacity:0.135" fill="#dedcf1" d="M 516.5,-0.5 C 519.5,-0.5 522.5,-0.5 525.5,-0.5C 522.727,0.657188 519.727,1.32385 516.5,1.5C 509.825,1.33375 503.158,1.50042 496.5,2C 495.584,2.27842 494.918,2.77842 494.5,3.5C 488.977,3.06922 483.644,3.73589 478.5,5.5C 479.1,4.10008 480.1,3.10008 481.5,2.5C 493.165,1.03278 504.832,0.0327819 516.5,-0.5 Z"/></g>
<g><path style="opacity:0.045" fill="#f1f0f9" d="M 576.5,1.5 C 576.5,1.16667 576.5,0.833333 576.5,0.5C 582.176,0.333909 587.843,0.500575 593.5,1C 604.123,2.17801 614.79,3.51134 625.5,5C 628.976,6.25422 632.642,6.92088 636.5,7C 638.119,7.23555 639.119,8.06888 639.5,9.5C 633.13,8.55328 626.797,7.55328 620.5,6.5C 620.167,6.5 619.833,6.5 619.5,6.5C 605.315,4.55292 590.982,2.88625 576.5,1.5 Z"/></g>
<g><path style="opacity:0.631" fill="#9f9ad7" d="M 563.5,1.5 C 567.833,1.5 572.167,1.5 576.5,1.5C 590.982,2.88625 605.315,4.55292 619.5,6.5C 600.701,5.3474 582.035,3.68074 563.5,1.5 Z"/></g>
<g><path style="opacity:0.816" fill="#9f9ad7" d="M 494.5,3.5 C 490.573,4.1378 486.573,4.97113 482.5,6C 469.671,6.41147 457.005,7.57813 444.5,9.5C 449.845,7.90139 455.512,6.73473 461.5,6C 467.157,5.50058 472.824,5.33391 478.5,5.5C 483.644,3.73589 488.977,3.06922 494.5,3.5 Z"/></g>
<g><path style="opacity:0.027" fill="#f3f3fa" d="M 481.5,2.5 C 480.1,3.10008 479.1,4.10008 478.5,5.5C 472.824,5.33391 467.157,5.50058 461.5,6C 455.512,6.73473 449.845,7.90139 444.5,9.5C 443.833,9.5 443.167,9.5 442.5,9.5C 441.5,9.5 440.5,9.5 439.5,9.5C 440.058,8.21009 441.058,7.37675 442.5,7C 455.552,5.37521 468.552,3.87521 481.5,2.5 Z"/></g>
<g><path style="opacity:0.506" fill="#aca8dd" d="M 620.5,6.5 C 626.797,7.55328 633.13,8.55328 639.5,9.5C 640.833,9.5 642.167,9.5 643.5,9.5C 643.5,9.83333 643.5,10.1667 643.5,10.5C 639.486,10.6655 635.486,10.4988 631.5,10C 627.541,9.23659 623.874,8.06992 620.5,6.5 Z"/></g>
<g><path style="opacity:0.034" fill="#f6f5fb" d="M 643.5,10.5 C 643.5,10.1667 643.5,9.83333 643.5,9.5C 646.388,8.98983 648.721,9.65649 650.5,11.5C 648.435,11.4828 646.435,11.1495 644.5,10.5C 644.167,10.5 643.833,10.5 643.5,10.5 Z"/></g>
<g><path style="opacity:0.435" fill="#b1addf" d="M 644.5,10.5 C 646.435,11.1495 648.435,11.4828 650.5,11.5C 651.5,11.5 652.5,11.5 653.5,11.5C 653.5,11.8333 653.5,12.1667 653.5,12.5C 649.988,13.0545 646.988,12.3878 644.5,10.5 Z"/></g>
<g><path style="opacity:0.841" fill="#8a83cf" d="M 428.5,12.5 C 428.047,13.4584 427.381,14.2917 426.5,15C 422.786,15.3195 419.119,15.8195 415.5,16.5C 415.611,15.8826 415.944,15.3826 416.5,15C 420.752,14.9251 424.752,14.0918 428.5,12.5 Z"/></g>
<g><path style="opacity:0.31" fill="#d9d6ef" d="M 439.5,9.5 C 440.5,9.5 441.5,9.5 442.5,9.5C 438.161,11.4071 433.495,12.4071 428.5,12.5C 424.752,14.0918 420.752,14.9251 416.5,15C 415.944,15.3826 415.611,15.8826 415.5,16.5C 410.699,16.6888 406.033,17.3555 401.5,18.5C 400.167,18.8333 398.833,19.1667 397.5,19.5C 402.08,16.9233 407.08,15.0899 412.5,14C 421.512,12.4592 430.512,10.9592 439.5,9.5 Z"/></g>
<g><path style="opacity:0.761" fill="#8d87d0" d="M 656.5,14.5 C 667.743,15.3822 678.41,17.7156 688.5,21.5C 677.799,19.1664 667.133,16.8331 656.5,14.5 Z"/></g>
<g><path style="opacity:0.637" fill="#9d98d7" d="M 688.5,21.5 C 693.57,21.9938 698.237,23.3271 702.5,25.5C 698.086,25.1687 693.752,24.3353 689.5,23C 688.944,22.6174 688.611,22.1174 688.5,21.5 Z"/></g>
<g><path style="opacity:0.041" fill="#f1f0f9" d="M 653.5,12.5 C 653.5,12.1667 653.5,11.8333 653.5,11.5C 678.98,15.3571 703.314,22.3571 726.5,32.5C 724.435,32.4828 722.435,32.1495 720.5,31.5C 718.142,31.7475 716.142,31.0808 714.5,29.5C 710.99,27.1167 706.99,25.7834 702.5,25.5C 698.237,23.3271 693.57,21.9938 688.5,21.5C 678.41,17.7156 667.743,15.3822 656.5,14.5C 656.027,13.0937 655.027,12.427 653.5,12.5 Z"/></g>
<g><path style="opacity:0.839" fill="#9e99d7" d="M 401.5,18.5 C 399.224,20.5835 396.557,22.0835 393.5,23C 385.598,24.615 377.932,26.7816 370.5,29.5C 370.5,28.5 370.5,27.5 370.5,26.5C 377.906,25.1008 385.24,23.6008 392.5,22C 394.175,21.0147 395.842,20.1814 397.5,19.5C 398.833,19.1667 400.167,18.8333 401.5,18.5 Z"/></g>
<g><path style="opacity:0.196" fill="#c3c0e6" d="M 702.5,25.5 C 706.99,25.7834 710.99,27.1167 714.5,29.5C 710.732,29.1902 707.065,28.3569 703.5,27C 702.944,26.6174 702.611,26.1174 702.5,25.5 Z"/></g>
<g><path style="opacity:0.82" fill="#8e87d0" d="M 720.5,31.5 C 722.435,32.1495 724.435,32.4828 726.5,32.5C 728.68,34.506 731.013,36.1727 733.5,37.5C 729.77,36.646 726.103,35.4793 722.5,34C 721.619,33.2917 720.953,32.4584 720.5,31.5 Z"/></g>
<g><path style="opacity:0.049" fill="#f0eff9" d="M 726.5,32.5 C 743.79,37.3524 760.123,44.1858 775.5,53C 778.58,53.7655 781.58,54.7655 784.5,56C 801.257,65.2158 817.924,74.7158 834.5,84.5C 835.386,85.325 835.719,86.325 835.5,87.5C 832.164,85.8283 828.83,84.1616 825.5,82.5C 823.882,80.684 821.882,79.3507 819.5,78.5C 814.628,75.233 809.628,72.233 804.5,69.5C 800.743,67.3492 797.076,65.3492 793.5,63.5C 789.662,61.322 785.662,59.322 781.5,57.5C 778.151,55.2667 774.485,53.6 770.5,52.5C 766.643,50.1608 762.643,47.9941 758.5,46C 750.333,42.7074 741.999,39.8741 733.5,37.5C 731.013,36.1727 728.68,34.506 726.5,32.5 Z"/></g>
<g><path style="opacity:0.061" fill="#e2e0f3" d="M 397.5,19.5 C 395.842,20.1814 394.175,21.0147 392.5,22C 385.24,23.6008 377.906,25.1008 370.5,26.5C 370.5,27.5 370.5,28.5 370.5,29.5C 366.788,30.0284 363.121,30.8618 359.5,32C 350.807,35.6154 342.141,39.1154 333.5,42.5C 329.174,43.0387 325.508,44.7053 322.5,47.5C 319.876,48.4942 317.21,49.4942 314.5,50.5C 310.753,52.7046 306.753,54.3712 302.5,55.5C 306.873,52.4667 311.539,49.6334 316.5,47C 340.703,36.7426 365.037,27.7426 389.5,20C 392.146,19.5026 394.813,19.3359 397.5,19.5 Z"/></g>
<g><path style="opacity:0.863" fill="#9a94d5" d="M 333.5,42.5 C 330.331,44.9084 326.664,46.5751 322.5,47.5C 325.508,44.7053 329.174,43.0387 333.5,42.5 Z"/></g>
<g><path style="opacity:0.753" fill="#9993d4" d="M 770.5,52.5 C 774.485,53.6 778.151,55.2667 781.5,57.5C 777.365,56.7915 773.698,55.1248 770.5,52.5 Z"/></g>
<g><path style="opacity:0.851" fill="#9089d1" d="M 314.5,50.5 C 314.586,51.4959 314.252,52.3292 313.5,53C 303.427,57.5057 293.427,62.0057 283.5,66.5C 284.348,64.9069 285.681,63.7403 287.5,63C 293.106,61.524 298.106,59.024 302.5,55.5C 306.753,54.3712 310.753,52.7046 314.5,50.5 Z"/></g>
<g><path style="opacity:0.906" fill="#8e87d0" d="M 781.5,57.5 C 785.662,59.322 789.662,61.322 793.5,63.5C 790.017,63.1099 786.684,62.1099 783.5,60.5C 782.388,59.7348 781.721,58.7348 781.5,57.5 Z"/></g>
<g><path style="opacity:0.016" fill="#ecebf7" d="M 302.5,55.5 C 298.106,59.024 293.106,61.524 287.5,63C 285.681,63.7403 284.348,64.9069 283.5,66.5C 281.517,66.1568 280.183,66.8235 279.5,68.5C 278.5,68.5 277.5,68.5 276.5,68.5C 276.369,67.6236 276.702,66.9569 277.5,66.5C 285.525,61.9845 293.858,58.3178 302.5,55.5 Z"/></g>
<g><path style="opacity:0.773" fill="#938cd2" d="M 804.5,69.5 C 809.628,72.233 814.628,75.233 819.5,78.5C 814.653,76.2479 809.653,74.2479 804.5,72.5C 804.5,71.5 804.5,70.5 804.5,69.5 Z"/></g>
<g><path style="opacity:0.525" fill="#cac6e9" d="M 276.5,68.5 C 277.5,68.5 278.5,68.5 279.5,68.5C 273.642,72.6807 267.309,76.0141 260.5,78.5C 260.721,77.2652 261.388,76.2652 262.5,75.5C 267.273,73.1136 271.94,70.7802 276.5,68.5 Z"/></g>
<g><path style="opacity:0.675" fill="#a59fda" d="M 259.5,80.5 C 255.784,83.4217 251.784,86.0884 247.5,88.5C 250.556,84.5701 254.556,81.9034 259.5,80.5 Z"/></g>
<g><path style="opacity:0.584" fill="#a5a0da" d="M 819.5,78.5 C 821.882,79.3507 823.882,80.684 825.5,82.5C 822.446,82.646 820.446,81.3126 819.5,78.5 Z"/></g>
<g><path style="opacity:0.025" fill="#e8e6f5" d="M 260.5,78.5 C 260.167,79.1667 259.833,79.8333 259.5,80.5C 254.556,81.9034 250.556,84.5701 247.5,88.5C 243.796,90.8895 240.129,93.2228 236.5,95.5C 231.205,98.4744 226.205,101.808 221.5,105.5C 220.609,106.11 219.609,106.443 218.5,106.5C 220.348,104.53 222.348,102.53 224.5,100.5C 235.392,93.5625 246.059,86.3958 256.5,79C 257.793,78.51 259.127,78.3433 260.5,78.5 Z"/></g>
<g><path style="opacity:0.796" fill="#938dd2" d="M 236.5,95.5 C 232.58,100.336 227.58,103.669 221.5,105.5C 226.205,101.808 231.205,98.4744 236.5,95.5 Z"/></g>
<g><path style="opacity:0.569" fill="#bbb6e3" d="M 221.5,105.5 C 216.853,110.141 211.853,114.474 206.5,118.5C 207.92,116.291 209.587,114.291 211.5,112.5C 212.914,109.418 215.248,107.418 218.5,106.5C 219.609,106.443 220.609,106.11 221.5,105.5 Z"/></g>
<g><path style="opacity:0.749" fill="#9a94d5" d="M 876.5,118.5 C 878.754,119.124 880.421,120.457 881.5,122.5C 879.205,121.864 877.539,120.531 876.5,118.5 Z"/></g>
<g><path style="opacity:0.059" fill="#ecebf7" d="M 211.5,112.5 C 209.587,114.291 207.92,116.291 206.5,118.5C 203.284,119.065 200.951,120.732 199.5,123.5C 197.989,124.502 196.322,125.169 194.5,125.5C 194.414,124.504 194.748,123.671 195.5,123C 200.046,120.556 204.046,117.389 207.5,113.5C 208.689,112.571 210.022,112.238 211.5,112.5 Z"/></g>
<g><path style="opacity:0.722" fill="#b7b2e1" d="M 199.5,123.5 C 196.822,126.17 193.822,128.503 190.5,130.5C 190.5,130.167 190.5,129.833 190.5,129.5C 191.167,127.5 192.5,126.167 194.5,125.5C 196.322,125.169 197.989,124.502 199.5,123.5 Z"/></g>
<g><path style="opacity:0.02" fill="#e2dff3" d="M 190.5,129.5 C 190.5,129.833 190.5,130.167 190.5,130.5C 186.153,134.845 181.486,138.845 176.5,142.5C 175.222,142.782 174.222,143.449 173.5,144.5C 174.662,141.32 176.662,138.653 179.5,136.5C 182.719,133.353 186.385,131.019 190.5,129.5 Z"/></g>
<g><path style="opacity:0.725" fill="#b7b2e1" d="M 176.5,142.5 C 174.689,145.818 172.022,148.151 168.5,149.5C 168.5,149.167 168.5,148.833 168.5,148.5C 169.873,146.793 171.539,145.46 173.5,144.5C 174.222,143.449 175.222,142.782 176.5,142.5 Z"/></g>
<g><path style="opacity:0.831" fill="#9d97d6" d="M 166.5,151.5 C 165.946,154.391 164.279,156.391 161.5,157.5C 162.797,155.202 164.463,153.202 166.5,151.5 Z"/></g>
<g><path style="opacity:0.017" fill="#f0eff9" d="M 168.5,148.5 C 168.5,148.833 168.5,149.167 168.5,149.5C 168.5,150.833 167.833,151.5 166.5,151.5C 164.463,153.202 162.797,155.202 161.5,157.5C 157.548,160.448 153.882,163.782 150.5,167.5C 149.614,168.325 149.281,169.325 149.5,170.5C 148.391,170.557 147.391,170.89 146.5,171.5C 151.784,161.883 159.117,154.216 168.5,148.5 Z"/></g>
<g><path style="opacity:1" fill="#181918" d="M 472.5,168.5 C 528.5,168.5 584.5,168.5 640.5,168.5C 640.5,179.5 640.5,190.5 640.5,201.5C 584.5,201.5 528.5,201.5 472.5,201.5C 472.5,190.5 472.5,179.5 472.5,168.5 Z"/></g>
<g><path style="opacity:0.722" fill="#aea8dd" d="M 149.5,170.5 C 147.486,172.845 145.153,174.845 142.5,176.5C 142.782,175.222 143.449,174.222 144.5,173.5C 144.5,172.167 145.167,171.5 146.5,171.5C 147.391,170.89 148.391,170.557 149.5,170.5 Z"/></g>
<g><path style="opacity:0.043" fill="#f6f6fb" d="M 144.5,173.5 C 143.449,174.222 142.782,175.222 142.5,176.5C 140.211,178.448 137.878,180.448 135.5,182.5C 137.167,178.167 140.167,175.167 144.5,173.5 Z"/></g>
<g><path style="opacity:0.561" fill="#b5b1e0" d="M 142.5,176.5 C 140.145,180.177 137.478,183.511 134.5,186.5C 134.833,185.167 135.167,183.833 135.5,182.5C 137.878,180.448 140.211,178.448 142.5,176.5 Z"/></g>
<g><path style="opacity:0.014" fill="#f1f0f9" d="M 135.5,182.5 C 135.167,183.833 134.833,185.167 134.5,186.5C 132.846,187.75 131.179,189.084 129.5,190.5C 130.336,186.909 132.336,184.242 135.5,182.5 Z"/></g>
<g><path style="opacity:0.635" fill="#b7b2e1" d="M 134.5,186.5 C 132.183,190.482 129.183,193.815 125.5,196.5C 125.5,195.833 125.5,195.167 125.5,194.5C 126.167,192.5 127.5,191.167 129.5,190.5C 131.179,189.084 132.846,187.75 134.5,186.5 Z"/></g>
<g><path style="opacity:1" fill="#403c6f" d="M 472.5,168.5 C 472.5,179.5 472.5,190.5 472.5,201.5C 472.5,201.833 472.5,202.167 472.5,202.5C 449.833,202.5 427.167,202.5 404.5,202.5C 426.66,201.503 448.994,201.169 471.5,201.5C 471.172,190.321 471.505,179.321 472.5,168.5 Z"/></g>
<g><path style="opacity:1" fill="#433f74" d="M 640.5,168.5 C 641.495,179.321 641.828,190.321 641.5,201.5C 664.006,201.169 686.34,201.503 708.5,202.5C 708.167,202.5 707.833,202.5 707.5,202.5C 685.167,202.5 662.833,202.5 640.5,202.5C 640.5,202.167 640.5,201.833 640.5,201.5C 640.5,190.5 640.5,179.5 640.5,168.5 Z"/></g>
<g><path style="opacity:1" fill="#191919" d="M 404.5,202.5 C 427.167,202.5 449.833,202.5 472.5,202.5C 472.5,213.5 472.5,224.5 472.5,235.5C 472.167,235.5 471.833,235.5 471.5,235.5C 449.167,235.5 426.833,235.5 404.5,235.5C 404.5,224.5 404.5,213.5 404.5,202.5 Z"/></g>
<g><path style="opacity:1" fill="#797874" d="M 539.5,269.5 C 528.5,269.5 517.5,269.5 506.5,269.5C 506.167,269.5 505.833,269.5 505.5,269.5C 494.5,269.5 483.5,269.5 472.5,269.5C 472.5,258.5 472.5,247.5 472.5,236.5C 483.679,236.828 494.679,236.495 505.5,235.5C 505.5,224.5 505.5,213.5 505.5,202.5C 539.167,202.5 572.833,202.5 606.5,202.5C 606.5,213.5 606.5,224.5 606.5,235.5C 595.5,235.5 584.5,235.5 573.5,235.5C 573.5,246.833 573.5,258.167 573.5,269.5C 562.167,269.5 550.833,269.5 539.5,269.5 Z"/></g>
<g><path style="opacity:1" fill="#414245" d="M 472.5,201.5 C 528.5,201.5 584.5,201.5 640.5,201.5C 640.5,201.833 640.5,202.167 640.5,202.5C 640.5,213.5 640.5,224.5 640.5,235.5C 662.833,235.5 685.167,235.5 707.5,235.5C 707.5,224.5 707.5,213.5 707.5,202.5C 707.833,202.5 708.167,202.5 708.5,202.5C 708.5,213.5 708.5,224.5 708.5,235.5C 730.833,235.5 753.167,235.5 775.5,235.5C 775.5,235.833 775.5,236.167 775.5,236.5C 753.167,236.5 730.833,236.5 708.5,236.5C 708.5,247.5 708.5,258.5 708.5,269.5C 719.5,269.5 730.5,269.5 741.5,269.5C 741.5,280.833 741.5,292.167 741.5,303.5C 752.833,303.5 764.167,303.5 775.5,303.5C 775.5,325.833 775.5,348.167 775.5,370.5C 730.5,370.5 685.5,370.5 640.5,370.5C 640.5,359.167 640.5,347.833 640.5,336.5C 629.5,336.5 618.5,336.5 607.5,336.5C 607.5,347.833 607.5,359.167 607.5,370.5C 607.167,370.5 606.833,370.5 606.5,370.5C 606.5,359.167 606.5,347.833 606.5,336.5C 595.5,336.5 584.5,336.5 573.5,336.5C 573.5,325.5 573.5,314.5 573.5,303.5C 562.167,303.5 550.833,303.5 539.5,303.5C 539.5,303.167 539.5,302.833 539.5,302.5C 539.5,291.5 539.5,280.5 539.5,269.5C 550.833,269.5 562.167,269.5 573.5,269.5C 573.5,258.167 573.5,246.833 573.5,235.5C 584.5,235.5 595.5,235.5 606.5,235.5C 606.5,224.5 606.5,213.5 606.5,202.5C 572.833,202.5 539.167,202.5 505.5,202.5C 505.5,213.5 505.5,224.5 505.5,235.5C 494.5,235.5 483.5,235.5 472.5,235.5C 472.5,224.5 472.5,213.5 472.5,202.5C 472.5,202.167 472.5,201.833 472.5,201.5 Z"/></g>
<g><path style="opacity:1" fill="#191919" d="M 640.5,202.5 C 662.833,202.5 685.167,202.5 707.5,202.5C 707.5,213.5 707.5,224.5 707.5,235.5C 685.167,235.5 662.833,235.5 640.5,235.5C 640.5,224.5 640.5,213.5 640.5,202.5 Z"/></g>
<g><path style="opacity:0.863" fill="#938cd2" d="M 123.5,199.5 C 123.117,203.291 121.117,205.624 117.5,206.5C 118.668,203.407 120.668,201.074 123.5,199.5 Z"/></g>
<g><path style="opacity:0.808" fill="#9a94d5" d="M 117.5,207.5 C 116.478,210.522 114.478,212.522 111.5,213.5C 113.215,211.118 115.215,209.118 117.5,207.5 Z"/></g>
<g><path style="opacity:0.278" fill="#f9f8fc" d="M 835.5,87.5 C 839.352,88.6121 843.019,90.2787 846.5,92.5C 851.667,96.5816 857,100.415 862.5,104C 889.828,124.82 915.495,147.654 939.5,172.5C 946.421,182.091 954.087,191.091 962.5,199.5C 965.013,203.858 968.013,207.858 971.5,211.5C 972.429,212.689 972.762,214.022 972.5,215.5C 973.675,215.281 974.675,215.614 975.5,216.5C 1014.9,270.31 1043.9,329.31 1062.5,393.5C 1065.84,408.473 1069.67,423.139 1074,437.5C 1075.65,450.675 1077.48,463.675 1079.5,476.5C 1079.5,487.833 1079.5,499.167 1079.5,510.5C 1077.69,489.567 1075.19,468.567 1072,447.5C 1047.55,315.875 984.045,207.542 881.5,122.5C 880.421,120.457 878.754,119.124 876.5,118.5C 863.371,107.438 849.705,97.1045 835.5,87.5 Z"/></g>
<g><path style="opacity:0.051" fill="#e2e0f3" d="M 125.5,194.5 C 125.5,195.167 125.5,195.833 125.5,196.5C 125.068,197.71 124.401,198.71 123.5,199.5C 120.668,201.074 118.668,203.407 117.5,206.5C 117.5,206.833 117.5,207.167 117.5,207.5C 115.215,209.118 113.215,211.118 111.5,213.5C 102.393,224.754 94.0593,236.421 86.5,248.5C 84.4551,249.923 83.4551,251.923 83.5,254.5C 79.9581,259.898 76.6247,265.565 73.5,271.5C 72.5,272.167 71.5,272.833 70.5,273.5C 74.0568,265.608 78.0568,257.941 82.5,250.5C 87.4871,245.203 91.4871,239.203 94.5,232.5C 103.521,220.978 112.355,209.312 121,197.5C 122.129,195.859 123.629,194.859 125.5,194.5 Z"/></g>
<g><path style="opacity:1" fill="#3c3966" d="M 404.5,235.5 C 404.5,235.833 404.5,236.167 404.5,236.5C 382.167,236.5 359.833,236.5 337.5,236.5C 337.5,247.5 337.5,258.5 337.5,269.5C 337.167,269.5 336.833,269.5 336.5,269.5C 336.5,258.167 336.5,246.833 336.5,235.5C 359.167,235.5 381.833,235.5 404.5,235.5 Z"/></g>
<g><path style="opacity:1" fill="#181918" d="M 404.5,236.5 C 404.5,247.5 404.5,258.5 404.5,269.5C 382.167,269.5 359.833,269.5 337.5,269.5C 337.5,258.5 337.5,247.5 337.5,236.5C 359.833,236.5 382.167,236.5 404.5,236.5 Z"/></g>
<g><path style="opacity:1" fill="#414244" d="M 404.5,235.5 C 426.833,235.5 449.167,235.5 471.5,235.5C 471.5,246.833 471.5,258.167 471.5,269.5C 449.167,269.5 426.833,269.5 404.5,269.5C 404.5,258.5 404.5,247.5 404.5,236.5C 404.5,236.167 404.5,235.833 404.5,235.5 Z"/></g>
<g><path style="opacity:1" fill="#5e5e5d" d="M 471.5,235.5 C 471.833,235.5 472.167,235.5 472.5,235.5C 483.5,235.5 494.5,235.5 505.5,235.5C 494.679,236.495 483.679,236.828 472.5,236.5C 472.5,247.5 472.5,258.5 472.5,269.5C 472.167,269.5 471.833,269.5 471.5,269.5C 471.5,258.167 471.5,246.833 471.5,235.5 Z"/></g>
<g><path style="opacity:1" fill="#191919" d="M 775.5,236.5 C 775.5,258.833 775.5,281.167 775.5,303.5C 764.167,303.5 752.833,303.5 741.5,303.5C 741.5,292.167 741.5,280.833 741.5,269.5C 730.5,269.5 719.5,269.5 708.5,269.5C 708.5,258.5 708.5,247.5 708.5,236.5C 730.833,236.5 753.167,236.5 775.5,236.5 Z"/></g>
<g><path style="opacity:1" fill="#4f4a8e" d="M 775.5,235.5 C 776.497,257.66 776.831,279.994 776.5,302.5C 787.679,302.172 798.679,302.505 809.5,303.5C 798.167,303.5 786.833,303.5 775.5,303.5C 775.5,281.167 775.5,258.833 775.5,236.5C 775.5,236.167 775.5,235.833 775.5,235.5 Z"/></g>
<g><path style="opacity:0.62" fill="#aca7dd" d="M 86.5,248.5 C 86.5449,251.077 85.5449,253.077 83.5,254.5C 83.4551,251.923 84.4551,249.923 86.5,248.5 Z"/></g>
<g><path style="opacity:1" fill="#35363a" d="M 404.5,269.5 C 426.833,269.5 449.167,269.5 471.5,269.5C 471.833,269.5 472.167,269.5 472.5,269.5C 483.5,269.5 494.5,269.5 505.5,269.5C 505.5,280.833 505.5,292.167 505.5,303.5C 471.833,303.5 438.167,303.5 404.5,303.5C 404.5,292.167 404.5,280.833 404.5,269.5 Z"/></g>
<g><path style="opacity:1" fill="#191919" d="M 336.5,269.5 C 336.833,269.5 337.167,269.5 337.5,269.5C 337.5,291.833 337.5,314.167 337.5,336.5C 337.5,370.167 337.5,403.833 337.5,437.5C 326.167,437.5 314.833,437.5 303.5,437.5C 303.5,381.5 303.5,325.5 303.5,269.5C 314.5,269.5 325.5,269.5 336.5,269.5 Z"/></g>
<g><path style="opacity:1" fill="#414244" d="M 337.5,269.5 C 359.833,269.5 382.167,269.5 404.5,269.5C 404.5,280.833 404.5,292.167 404.5,303.5C 393.167,303.5 381.833,303.5 370.5,303.5C 370.5,314.5 370.5,325.5 370.5,336.5C 359.5,336.5 348.5,336.5 337.5,336.5C 337.5,314.167 337.5,291.833 337.5,269.5 Z"/></g>
<g><path style="opacity:1" fill="#b8988c" d="M 506.5,269.5 C 517.5,269.5 528.5,269.5 539.5,269.5C 539.5,280.5 539.5,291.5 539.5,302.5C 528.5,302.5 517.5,302.5 506.5,302.5C 506.5,291.5 506.5,280.5 506.5,269.5 Z"/></g>
<g><path style="opacity:0.835" fill="#9892d4" d="M 73.5,271.5 C 72.5324,274.1 71.1991,276.434 69.5,278.5C 70.038,276.883 70.3713,275.216 70.5,273.5C 71.5,272.833 72.5,272.167 73.5,271.5 Z"/></g>
<g><path style="opacity:0.631" fill="#bcb8e3" d="M 70.5,273.5 C 70.3713,275.216 70.038,276.883 69.5,278.5C 67.1981,283.104 64.8647,287.771 62.5,292.5C 61.8165,292.863 61.1499,293.196 60.5,293.5C 63.0407,289.083 65.0407,284.416 66.5,279.5C 66.9477,276.828 68.281,274.828 70.5,273.5 Z"/></g>
<g><path style="opacity:0.025" fill="#f0f0f9" d="M 66.5,279.5 C 65.0407,284.416 63.0407,289.083 60.5,293.5C 60.6085,295.514 59.9418,297.18 58.5,298.5C 58.1667,298.5 57.8333,298.5 57.5,298.5C 59.1718,291.492 62.1718,285.158 66.5,279.5 Z"/></g>
<g><path style="opacity:1" fill="#947d76" d="M 505.5,269.5 C 505.833,269.5 506.167,269.5 506.5,269.5C 506.5,280.5 506.5,291.5 506.5,302.5C 517.5,302.5 528.5,302.5 539.5,302.5C 539.5,302.833 539.5,303.167 539.5,303.5C 528.5,303.5 517.5,303.5 506.5,303.5C 506.167,303.5 505.833,303.5 505.5,303.5C 505.5,292.167 505.5,280.833 505.5,269.5 Z"/></g>
<g><path style="opacity:1" fill="#35373b" d="M 404.5,303.5 C 404.5,314.5 404.5,325.5 404.5,336.5C 393.167,336.5 381.833,336.5 370.5,336.5C 370.5,325.5 370.5,314.5 370.5,303.5C 381.833,303.5 393.167,303.5 404.5,303.5 Z"/></g>
<g><path style="opacity:1" fill="#5a2a22" d="M 404.5,303.5 C 438.167,303.5 471.833,303.5 505.5,303.5C 505.5,314.5 505.5,325.5 505.5,336.5C 471.833,336.5 438.167,336.5 404.5,336.5C 404.5,325.5 404.5,314.5 404.5,303.5 Z"/></g>
<g><path style="opacity:1" fill="#35373b" d="M 506.5,303.5 C 517.5,303.5 528.5,303.5 539.5,303.5C 550.833,303.5 562.167,303.5 573.5,303.5C 573.5,314.5 573.5,325.5 573.5,336.5C 551.167,336.5 528.833,336.5 506.5,336.5C 506.5,325.5 506.5,314.5 506.5,303.5 Z"/></g>
<g><path style="opacity:1" fill="#191919" d="M 775.5,303.5 C 786.833,303.5 798.167,303.5 809.5,303.5C 809.5,404.5 809.5,505.5 809.5,606.5C 798.167,606.5 786.833,606.5 775.5,606.5C 775.5,539.167 775.5,471.833 775.5,404.5C 775.5,393.167 775.5,381.833 775.5,370.5C 775.5,348.167 775.5,325.833 775.5,303.5 Z"/></g>
<g><path style="opacity:0.671" fill="#c9c6e9" d="M 57.5,298.5 C 57.8333,298.5 58.1667,298.5 58.5,298.5C 55.2428,306.406 51.5761,314.072 47.5,321.5C 47.5,320.167 47.5,318.833 47.5,317.5C 50.0922,310.643 53.4256,304.31 57.5,298.5 Z"/></g>
<g><path style="opacity:0.037" fill="#f0eff9" d="M 47.5,317.5 C 47.5,318.833 47.5,320.167 47.5,321.5C 47.5,322.167 47.1667,322.5 46.5,322.5C 44.2829,328.712 41.6163,334.712 38.5,340.5C 38.3379,338.473 38.5045,336.473 39,334.5C 41.3909,328.568 44.2242,322.901 47.5,317.5 Z"/></g>
<g><path style="opacity:0.792" fill="#9e98d7" d="M 46.5,322.5 C 46.8076,324.924 46.4742,327.257 45.5,329.5C 43.1348,333.569 41.3015,337.902 40,342.5C 39.2917,343.381 38.4584,344.047 37.5,344.5C 37.8333,343.167 38.1667,341.833 38.5,340.5C 41.6163,334.712 44.2829,328.712 46.5,322.5 Z"/></g>
<g><path style="opacity:1" fill="#46302f" d="M 505.5,303.5 C 505.833,303.5 506.167,303.5 506.5,303.5C 506.5,314.5 506.5,325.5 506.5,336.5C 528.833,336.5 551.167,336.5 573.5,336.5C 573.5,336.833 573.5,337.167 573.5,337.5C 550.833,337.5 528.167,337.5 505.5,337.5C 505.5,337.167 505.5,336.833 505.5,336.5C 505.5,325.5 505.5,314.5 505.5,303.5 Z"/></g>
<g><path style="opacity:1" fill="#34363b" d="M 337.5,336.5 C 348.5,336.5 359.5,336.5 370.5,336.5C 370.5,370.5 370.5,404.5 370.5,438.5C 359.5,438.5 348.5,438.5 337.5,438.5C 337.167,438.5 336.833,438.5 336.5,438.5C 325.321,438.828 314.321,438.495 303.5,437.5C 314.833,437.5 326.167,437.5 337.5,437.5C 337.5,403.833 337.5,370.167 337.5,336.5 Z"/></g>
<g><path style="opacity:1" fill="#4b2b27" d="M 370.5,336.5 C 381.833,336.5 393.167,336.5 404.5,336.5C 404.5,336.833 404.5,337.167 404.5,337.5C 393.5,337.5 382.5,337.5 371.5,337.5C 371.5,393.5 371.5,449.5 371.5,505.5C 371.167,505.5 370.833,505.5 370.5,505.5C 370.5,483.167 370.5,460.833 370.5,438.5C 370.5,404.5 370.5,370.5 370.5,336.5 Z"/></g>
<g><path style="opacity:1" fill="#5a2a21" d="M 404.5,337.5 C 404.5,371.167 404.5,404.833 404.5,438.5C 404.5,449.833 404.5,461.167 404.5,472.5C 404.5,483.5 404.5,494.5 404.5,505.5C 393.5,505.5 382.5,505.5 371.5,505.5C 371.5,449.5 371.5,393.5 371.5,337.5C 382.5,337.5 393.5,337.5 404.5,337.5 Z"/></g>
<g><path style="opacity:1" fill="#febcad" d="M 404.5,336.5 C 438.167,336.5 471.833,336.5 505.5,336.5C 505.5,336.833 505.5,337.167 505.5,337.5C 505.5,348.5 505.5,359.5 505.5,370.5C 527.66,371.497 549.994,371.831 572.5,371.5C 572.172,382.679 572.505,393.679 573.5,404.5C 584.5,404.5 595.5,404.5 606.5,404.5C 606.833,404.5 607.167,404.5 607.5,404.5C 607.5,415.833 607.5,427.167 607.5,438.5C 607.5,449.5 607.5,460.5 607.5,471.5C 596.167,471.5 584.833,471.5 573.5,471.5C 572.505,482.654 572.172,493.988 572.5,505.5C 561.5,505.5 550.5,505.5 539.5,505.5C 539.5,494.5 539.5,483.5 539.5,472.5C 528.167,472.5 516.833,472.5 505.5,472.5C 505.5,461.167 505.5,449.833 505.5,438.5C 494.5,438.5 483.5,438.5 472.5,438.5C 472.167,438.5 471.833,438.5 471.5,438.5C 449.167,438.5 426.833,438.5 404.5,438.5C 404.5,404.833 404.5,371.167 404.5,337.5C 404.5,337.167 404.5,336.833 404.5,336.5 Z"/></g>
<g><path style="opacity:1" fill="#5b2a22" d="M 505.5,337.5 C 528.167,337.5 550.833,337.5 573.5,337.5C 573.5,348.5 573.5,359.5 573.5,370.5C 550.833,370.5 528.167,370.5 505.5,370.5C 505.5,359.5 505.5,348.5 505.5,337.5 Z"/></g>
<g><path style="opacity:1" fill="#35373b" d="M 573.5,336.5 C 584.5,336.5 595.5,336.5 606.5,336.5C 606.5,347.833 606.5,359.167 606.5,370.5C 595.5,370.5 584.5,370.5 573.5,370.5C 573.5,359.5 573.5,348.5 573.5,337.5C 573.5,337.167 573.5,336.833 573.5,336.5 Z"/></g>
<g><path style="opacity:1" fill="#797874" d="M 640.5,370.5 C 629.5,370.5 618.5,370.5 607.5,370.5C 607.5,359.167 607.5,347.833 607.5,336.5C 618.5,336.5 629.5,336.5 640.5,336.5C 640.5,347.833 640.5,359.167 640.5,370.5 Z"/></g>
<g><path style="opacity:1" fill="#cd9184" d="M 505.5,370.5 C 528.167,370.5 550.833,370.5 573.5,370.5C 573.5,370.833 573.5,371.167 573.5,371.5C 573.5,382.5 573.5,393.5 573.5,404.5C 572.505,393.679 572.172,382.679 572.5,371.5C 549.994,371.831 527.66,371.497 505.5,370.5 Z"/></g>
<g><path style="opacity:1" fill="#5a2a21" d="M 573.5,371.5 C 584.5,371.5 595.5,371.5 606.5,371.5C 606.5,382.5 606.5,393.5 606.5,404.5C 595.5,404.5 584.5,404.5 573.5,404.5C 573.5,393.5 573.5,382.5 573.5,371.5 Z"/></g>
<g><path style="opacity:1" fill="#4b2e2b" d="M 573.5,371.5 C 573.5,371.167 573.5,370.833 573.5,370.5C 584.5,370.5 595.5,370.5 606.5,370.5C 606.833,370.5 607.167,370.5 607.5,370.5C 607.5,381.833 607.5,393.167 607.5,404.5C 607.167,404.5 606.833,404.5 606.5,404.5C 606.5,393.5 606.5,382.5 606.5,371.5C 595.5,371.5 584.5,371.5 573.5,371.5 Z"/></g>
<g><path style="opacity:1" fill="#35373b" d="M 607.5,370.5 C 618.5,370.5 629.5,370.5 640.5,370.5C 685.5,370.5 730.5,370.5 775.5,370.5C 775.5,381.833 775.5,393.167 775.5,404.5C 719.5,404.5 663.5,404.5 607.5,404.5C 607.5,393.167 607.5,381.833 607.5,370.5 Z"/></g>
<g><path style="opacity:0.518" fill="#b7b3e1" d="M 28.5,370.5 C 27.9346,372.952 27.2679,375.285 26.5,377.5C 25.9898,374.612 26.6565,372.279 28.5,370.5 Z"/></g>
<g><path style="opacity:0.694" fill="#948ed3" d="M 26.5,377.5 C 23.4829,389.96 20.1495,402.294 16.5,414.5C 18.9301,404.285 21.2635,393.952 23.5,383.5C 24.0108,381.116 25.0108,379.116 26.5,377.5 Z"/></g>
<g><path style="opacity:1" fill="#5b2a22" d="M 607.5,404.5 C 663.5,404.5 719.5,404.5 775.5,404.5C 775.5,471.833 775.5,539.167 775.5,606.5C 775.5,606.833 775.5,607.167 775.5,607.5C 764.5,607.5 753.5,607.5 742.5,607.5C 742.5,562.5 742.5,517.5 742.5,472.5C 742.828,460.988 742.495,449.654 741.5,438.5C 730.5,438.5 719.5,438.5 708.5,438.5C 708.167,438.5 707.833,438.5 707.5,438.5C 685.5,438.5 663.5,438.5 641.5,438.5C 641.167,438.5 640.833,438.5 640.5,438.5C 629.5,438.5 618.5,438.5 607.5,438.5C 607.5,427.167 607.5,415.833 607.5,404.5 Z"/></g>
<g><path style="opacity:0.312" fill="#e2e0f3" d="M 38.5,340.5 C 38.1667,341.833 37.8333,343.167 37.5,344.5C 34.4663,353.217 31.4663,361.884 28.5,370.5C 26.6565,372.279 25.9898,374.612 26.5,377.5C 25.0108,379.116 24.0108,381.116 23.5,383.5C 21.2635,393.952 18.9301,404.285 16.5,414.5C 15.1608,419.08 13.8274,423.747 12.5,428.5C 12.1667,428.5 11.8333,428.5 11.5,428.5C 16.7369,399.813 24.7369,371.813 35.5,344.5C 36.0568,342.668 37.0568,341.335 38.5,340.5 Z"/></g>
<g><path style="opacity:1" fill="#181918" d="M 337.5,438.5 C 348.5,438.5 359.5,438.5 370.5,438.5C 370.5,460.833 370.5,483.167 370.5,505.5C 359.5,505.5 348.5,505.5 337.5,505.5C 337.5,483.167 337.5,460.833 337.5,438.5 Z"/></g>
<g><path style="opacity:1" fill="#83574f" d="M 404.5,438.5 C 426.833,438.5 449.167,438.5 471.5,438.5C 471.5,449.5 471.5,460.5 471.5,471.5C 449.092,471.178 426.758,471.511 404.5,472.5C 404.5,461.167 404.5,449.833 404.5,438.5 Z"/></g>
<g><path style="opacity:1" fill="#ce897d" d="M 472.5,438.5 C 483.5,438.5 494.5,438.5 505.5,438.5C 505.5,449.833 505.5,461.167 505.5,472.5C 494.5,472.5 483.5,472.5 472.5,472.5C 472.5,461.167 472.5,449.833 472.5,438.5 Z"/></g>
<g><path style="opacity:1" fill="#ce887d" d="M 607.5,438.5 C 618.5,438.5 629.5,438.5 640.5,438.5C 640.5,449.833 640.5,461.167 640.5,472.5C 629.167,472.5 617.833,472.5 606.5,472.5C 595.5,472.5 584.5,472.5 573.5,472.5C 573.5,472.167 573.5,471.833 573.5,471.5C 584.833,471.5 596.167,471.5 607.5,471.5C 607.5,460.5 607.5,449.5 607.5,438.5 Z"/></g>
<g><path style="opacity:1" fill="#cf8a7d" d="M 708.5,438.5 C 719.5,438.5 730.5,438.5 741.5,438.5C 741.5,449.5 741.5,460.5 741.5,471.5C 730.5,471.5 719.5,471.5 708.5,471.5C 708.5,460.5 708.5,449.5 708.5,438.5 Z"/></g>
<g><path style="opacity:0.01" fill="#f0eff8" d="M 9.5,441.5 C 6.30151,457.488 4.30151,473.821 3.5,490.5C 2.88258,490.611 2.38258,490.944 2,491.5C 1.66667,501.833 1.33333,512.167 1,522.5C 0.76791,523.737 0.26791,524.737 -0.5,525.5C -0.5,524.167 -0.5,522.833 -0.5,521.5C 0.562428,495.761 3.06243,470.094 7,444.5C 7.37675,443.058 8.21009,442.058 9.5,441.5 Z"/></g>
<g><path style="opacity:1" fill="#87554d" d="M 471.5,438.5 C 471.833,438.5 472.167,438.5 472.5,438.5C 472.5,449.833 472.5,461.167 472.5,472.5C 483.5,472.5 494.5,472.5 505.5,472.5C 505.5,483.833 505.5,495.167 505.5,506.5C 460.833,506.5 416.167,506.5 371.5,506.5C 371.5,517.5 371.5,528.5 371.5,539.5C 371.5,550.833 371.5,562.167 371.5,573.5C 371.167,573.5 370.833,573.5 370.5,573.5C 370.5,562.167 370.5,550.833 370.5,539.5C 370.5,528.167 370.5,516.833 370.5,505.5C 370.833,505.5 371.167,505.5 371.5,505.5C 382.5,505.5 393.5,505.5 404.5,505.5C 404.5,494.5 404.5,483.5 404.5,472.5C 426.758,471.511 449.092,471.178 471.5,471.5C 471.5,460.5 471.5,449.5 471.5,438.5 Z"/></g>
<g><path style="opacity:1" fill="#87554d" d="M 640.5,438.5 C 640.833,438.5 641.167,438.5 641.5,438.5C 641.5,449.5 641.5,460.5 641.5,471.5C 663.5,471.5 685.5,471.5 707.5,471.5C 707.5,460.5 707.5,449.5 707.5,438.5C 707.833,438.5 708.167,438.5 708.5,438.5C 708.5,449.5 708.5,460.5 708.5,471.5C 719.654,472.495 730.988,472.828 742.5,472.5C 742.5,517.5 742.5,562.5 742.5,607.5C 742.5,652.167 742.5,696.833 742.5,741.5C 742.5,741.833 742.5,742.167 742.5,742.5C 731.167,742.5 719.833,742.5 708.5,742.5C 719.321,741.505 730.321,741.172 741.5,741.5C 741.5,674.167 741.5,606.833 741.5,539.5C 741.5,528.5 741.5,517.5 741.5,506.5C 719.167,506.5 696.833,506.5 674.5,506.5C 663.265,505.181 651.931,505.181 640.5,506.5C 629.167,506.5 617.833,506.5 606.5,506.5C 606.5,495.167 606.5,483.833 606.5,472.5C 617.833,472.5 629.167,472.5 640.5,472.5C 640.5,461.167 640.5,449.833 640.5,438.5 Z"/></g>
<g><path style="opacity:1" fill="#83584f" d="M 641.5,438.5 C 663.5,438.5 685.5,438.5 707.5,438.5C 707.5,449.5 707.5,460.5 707.5,471.5C 685.5,471.5 663.5,471.5 641.5,471.5C 641.5,460.5 641.5,449.5 641.5,438.5 Z"/></g>
<g><path style="opacity:1" fill="#a6695f" d="M 741.5,438.5 C 742.495,449.654 742.828,460.988 742.5,472.5C 730.988,472.828 719.654,472.495 708.5,471.5C 719.5,471.5 730.5,471.5 741.5,471.5C 741.5,460.5 741.5,449.5 741.5,438.5 Z"/></g>
<g><path style="opacity:1" fill="#cf897e" d="M 505.5,472.5 C 516.833,472.5 528.167,472.5 539.5,472.5C 539.5,483.5 539.5,494.5 539.5,505.5C 539.5,528.167 539.5,550.833 539.5,573.5C 528.167,573.5 516.833,573.5 505.5,573.5C 505.5,595.833 505.5,618.167 505.5,640.5C 494.5,640.5 483.5,640.5 472.5,640.5C 472.5,618.167 472.5,595.833 472.5,573.5C 438.833,573.5 405.167,573.5 371.5,573.5C 371.5,562.167 371.5,550.833 371.5,539.5C 416.167,539.5 460.833,539.5 505.5,539.5C 505.5,528.5 505.5,517.5 505.5,506.5C 505.5,495.167 505.5,483.833 505.5,472.5 Z"/></g>
<g><path style="opacity:1" fill="#83584f" d="M 573.5,472.5 C 584.5,472.5 595.5,472.5 606.5,472.5C 606.5,483.833 606.5,495.167 606.5,506.5C 617.833,506.5 629.167,506.5 640.5,506.5C 640.5,517.5 640.5,528.5 640.5,539.5C 629.5,539.5 618.5,539.5 607.5,539.5C 607.167,539.5 606.833,539.5 606.5,539.5C 595.5,539.5 584.5,539.5 573.5,539.5C 573.5,517.167 573.5,494.833 573.5,472.5 Z"/></g>
<g><path style="opacity:0.608" fill="#afaade" d="M 11.5,428.5 C 11.8333,428.5 12.1667,428.5 12.5,428.5C 9.80292,449.348 6.80292,470.015 3.5,490.5C 4.30151,473.821 6.30151,457.488 9.5,441.5C 9.2716,436.985 9.93827,432.652 11.5,428.5 Z"/></g>
<g><path style="opacity:1" fill="#38355d" d="M 336.5,438.5 C 336.833,438.5 337.167,438.5 337.5,438.5C 337.5,460.833 337.5,483.167 337.5,505.5C 337.5,505.833 337.5,506.167 337.5,506.5C 326.167,506.5 314.833,506.5 303.5,506.5C 314.321,505.505 325.321,505.172 336.5,505.5C 336.5,483.167 336.5,460.833 336.5,438.5 Z"/></g>
<g><path style="opacity:1" fill="#fbaea2" d="M 573.5,471.5 C 573.5,471.833 573.5,472.167 573.5,472.5C 573.5,494.833 573.5,517.167 573.5,539.5C 573.5,573.167 573.5,606.833 573.5,640.5C 562.167,640.5 550.833,640.5 539.5,640.5C 539.5,651.833 539.5,663.167 539.5,674.5C 528.167,674.5 516.833,674.5 505.5,674.5C 505.5,663.167 505.5,651.833 505.5,640.5C 505.5,618.167 505.5,595.833 505.5,573.5C 516.833,573.5 528.167,573.5 539.5,573.5C 539.5,550.833 539.5,528.167 539.5,505.5C 550.5,505.5 561.5,505.5 572.5,505.5C 572.172,493.988 572.505,482.654 573.5,471.5 Z"/></g>
<g><path style="opacity:1" fill="#191919" d="M 303.5,506.5 C 314.833,506.5 326.167,506.5 337.5,506.5C 337.5,517.5 337.5,528.5 337.5,539.5C 326.167,539.5 314.833,539.5 303.5,539.5C 303.5,528.5 303.5,517.5 303.5,506.5 Z"/></g>
<g><path style="opacity:1" fill="#5a2921" d="M 337.5,505.5 C 348.5,505.5 359.5,505.5 370.5,505.5C 370.5,516.833 370.5,528.167 370.5,539.5C 359.5,539.5 348.5,539.5 337.5,539.5C 337.5,528.5 337.5,517.5 337.5,506.5C 337.5,506.167 337.5,505.833 337.5,505.5 Z"/></g>
<g><path style="opacity:1" fill="#83584f" d="M 505.5,506.5 C 505.5,517.5 505.5,528.5 505.5,539.5C 460.833,539.5 416.167,539.5 371.5,539.5C 371.5,528.5 371.5,517.5 371.5,506.5C 416.167,506.5 460.833,506.5 505.5,506.5 Z"/></g>
<g><path style="opacity:1" fill="#82514a" d="M 674.5,506.5 C 674.5,517.5 674.5,528.5 674.5,539.5C 685.5,539.5 696.5,539.5 707.5,539.5C 707.5,550.5 707.5,561.5 707.5,572.5C 685.5,572.5 663.5,572.5 641.5,572.5C 641.828,561.321 641.495,550.321 640.5,539.5C 640.5,528.5 640.5,517.5 640.5,506.5C 651.931,505.181 663.265,505.181 674.5,506.5 Z"/></g>
<g><path style="opacity:1" fill="#83574f" d="M 674.5,506.5 C 696.833,506.5 719.167,506.5 741.5,506.5C 741.5,517.5 741.5,528.5 741.5,539.5C 730.5,539.5 719.5,539.5 708.5,539.5C 708.167,539.5 707.833,539.5 707.5,539.5C 696.5,539.5 685.5,539.5 674.5,539.5C 674.5,528.5 674.5,517.5 674.5,506.5 Z"/></g>
<g><path style="opacity:0.714" fill="#9b96d6" d="M 3.5,490.5 C 2.70803,502.121 2.20803,513.788 2,525.5C 1.06564,526.858 0.232305,528.192 -0.5,529.5C -0.5,528.167 -0.5,526.833 -0.5,525.5C 0.26791,524.737 0.76791,523.737 1,522.5C 1.33333,512.167 1.66667,501.833 2,491.5C 2.38258,490.944 2.88258,490.611 3.5,490.5 Z"/></g>
<g><path style="opacity:1" fill="#191919" d="M 337.5,539.5 C 348.5,539.5 359.5,539.5 370.5,539.5C 370.5,550.833 370.5,562.167 370.5,573.5C 370.5,629.5 370.5,685.5 370.5,741.5C 359.5,741.5 348.5,741.5 337.5,741.5C 337.5,674.167 337.5,606.833 337.5,539.5 Z"/></g>
<g><path style="opacity:1" fill="#c97369" d="M 573.5,539.5 C 584.5,539.5 595.5,539.5 606.5,539.5C 606.5,595.833 606.5,652.167 606.5,708.5C 572.833,708.5 539.167,708.5 505.5,708.5C 505.5,697.167 505.5,685.833 505.5,674.5C 516.833,674.5 528.167,674.5 539.5,674.5C 539.5,663.167 539.5,651.833 539.5,640.5C 550.833,640.5 562.167,640.5 573.5,640.5C 573.5,606.833 573.5,573.167 573.5,539.5 Z"/></g>
<g><path style="opacity:1" fill="#cf897d" d="M 606.5,539.5 C 606.833,539.5 607.167,539.5 607.5,539.5C 607.5,550.833 607.5,562.167 607.5,573.5C 607.5,595.833 607.5,618.167 607.5,640.5C 607.5,663.167 607.5,685.833 607.5,708.5C 618.5,708.5 629.5,708.5 640.5,708.5C 651.833,708.5 663.167,708.5 674.5,708.5C 674.5,697.167 674.5,685.833 674.5,674.5C 685.833,674.5 697.167,674.5 708.5,674.5C 708.5,663.167 708.5,651.833 708.5,640.5C 697.167,640.5 685.833,640.5 674.5,640.5C 674.5,629.5 674.5,618.5 674.5,607.5C 674.5,596.167 674.5,584.833 674.5,573.5C 685.833,573.5 697.167,573.5 708.5,573.5C 708.5,562.167 708.5,550.833 708.5,539.5C 719.5,539.5 730.5,539.5 741.5,539.5C 741.5,606.833 741.5,674.167 741.5,741.5C 730.321,741.172 719.321,741.505 708.5,742.5C 708.5,764.833 708.5,787.167 708.5,809.5C 697.167,809.5 685.833,809.5 674.5,809.5C 674.5,820.833 674.5,832.167 674.5,843.5C 663.5,843.5 652.5,843.5 641.5,843.5C 641.167,843.5 640.833,843.5 640.5,843.5C 640.5,843.167 640.5,842.833 640.5,842.5C 641.497,820.673 641.831,798.673 641.5,776.5C 652.679,776.828 663.679,776.495 674.5,775.5C 674.5,764.5 674.5,753.5 674.5,742.5C 663.346,741.505 652.012,741.172 640.5,741.5C 629.5,741.5 618.5,741.5 607.5,741.5C 596.167,741.5 584.833,741.5 573.5,741.5C 539.833,741.5 506.167,741.5 472.5,741.5C 472.828,730.321 472.495,719.321 471.5,708.5C 460.5,708.5 449.5,708.5 438.5,708.5C 438.5,719.5 438.5,730.5 438.5,741.5C 449.654,742.495 460.988,742.828 472.5,742.5C 472.5,753.5 472.5,764.5 472.5,775.5C 461.167,775.5 449.833,775.5 438.5,775.5C 438.5,786.833 438.5,798.167 438.5,809.5C 438.167,809.5 437.833,809.5 437.5,809.5C 426.5,809.5 415.5,809.5 404.5,809.5C 404.5,787.167 404.5,764.833 404.5,742.5C 393.679,741.505 382.679,741.172 371.5,741.5C 371.5,707.833 371.5,674.167 371.5,640.5C 382.5,640.5 393.5,640.5 404.5,640.5C 404.5,651.833 404.5,663.167 404.5,674.5C 415.833,674.5 427.167,674.5 438.5,674.5C 438.5,663.167 438.5,651.833 438.5,640.5C 449.5,640.5 460.5,640.5 471.5,640.5C 471.5,651.833 471.5,663.167 471.5,674.5C 482.833,674.5 494.167,674.5 505.5,674.5C 505.5,685.833 505.5,697.167 505.5,708.5C 539.167,708.5 572.833,708.5 606.5,708.5C 606.5,652.167 606.5,595.833 606.5,539.5 Z"/></g>
<g><path style="opacity:1" fill="#efa094" d="M 607.5,539.5 C 618.5,539.5 629.5,539.5 640.5,539.5C 640.5,550.833 640.5,562.167 640.5,573.5C 629.5,573.5 618.5,573.5 607.5,573.5C 607.5,562.167 607.5,550.833 607.5,539.5 Z"/></g>
<g><path style="opacity:0.411" fill="#f8f8fb" d="M 1079.5,561.5 C 1079.5,576.167 1079.5,590.833 1079.5,605.5C 1077.8,621.558 1075.3,637.558 1072,653.5C 1071.59,653.957 1071.09,654.291 1070.5,654.5C 1056.59,720.985 1031.09,782.652 994,839.5C 981.741,856.352 969.241,873.019 956.5,889.5C 951.552,892.757 947.885,897.09 945.5,902.5C 925.923,922.247 905.923,941.414 885.5,960C 881.253,963.741 876.586,966.907 871.5,969.5C 864.854,976.488 857.188,982.155 848.5,986.5C 845.413,988.943 842.413,991.443 839.5,994C 827.786,1001.01 816.119,1008.01 804.5,1015C 790.516,1021.82 776.849,1028.82 763.5,1036C 747.484,1042.06 731.484,1048.23 715.5,1054.5C 696.618,1060.14 677.618,1065.3 658.5,1070C 657.328,1070.42 656.328,1071.09 655.5,1072C 638.772,1074.83 622.105,1077.33 605.5,1079.5C 593.5,1079.5 581.5,1079.5 569.5,1079.5C 593.675,1077.46 617.675,1074.12 641.5,1069.5C 719.209,1054.96 789.875,1024.63 853.5,978.5C 868.782,968.36 883.115,957.027 896.5,944.5C 1009.25,841.991 1070.25,714.325 1079.5,561.5 Z"/></g>
<g><path style="opacity:1" fill="#986159" d="M 640.5,539.5 C 641.495,550.321 641.828,561.321 641.5,572.5C 663.5,572.5 685.5,572.5 707.5,572.5C 707.5,561.5 707.5,550.5 707.5,539.5C 707.833,539.5 708.167,539.5 708.5,539.5C 708.5,550.833 708.5,562.167 708.5,573.5C 697.167,573.5 685.833,573.5 674.5,573.5C 663.167,573.5 651.833,573.5 640.5,573.5C 640.5,562.167 640.5,550.833 640.5,539.5 Z"/></g>
<g><path style="opacity:1" fill="#febcad" d="M 371.5,573.5 C 405.167,573.5 438.833,573.5 472.5,573.5C 472.5,595.833 472.5,618.167 472.5,640.5C 472.167,640.5 471.833,640.5 471.5,640.5C 460.5,640.5 449.5,640.5 438.5,640.5C 438.5,651.833 438.5,663.167 438.5,674.5C 427.167,674.5 415.833,674.5 404.5,674.5C 404.5,663.167 404.5,651.833 404.5,640.5C 393.5,640.5 382.5,640.5 371.5,640.5C 371.5,618.167 371.5,595.833 371.5,573.5 Z"/></g>
<g><path style="opacity:1" fill="#febcad" d="M 607.5,573.5 C 618.5,573.5 629.5,573.5 640.5,573.5C 640.5,584.833 640.5,596.167 640.5,607.5C 651.833,607.5 663.167,607.5 674.5,607.5C 674.5,618.5 674.5,629.5 674.5,640.5C 685.833,640.5 697.167,640.5 708.5,640.5C 708.5,651.833 708.5,663.167 708.5,674.5C 697.167,674.5 685.833,674.5 674.5,674.5C 674.5,685.833 674.5,697.167 674.5,708.5C 663.167,708.5 651.833,708.5 640.5,708.5C 640.5,685.833 640.5,663.167 640.5,640.5C 629.5,640.5 618.5,640.5 607.5,640.5C 607.5,618.167 607.5,595.833 607.5,573.5 Z"/></g>
<g><path style="opacity:1" fill="#f0a094" d="M 640.5,573.5 C 651.833,573.5 663.167,573.5 674.5,573.5C 674.5,584.833 674.5,596.167 674.5,607.5C 663.167,607.5 651.833,607.5 640.5,607.5C 640.5,596.167 640.5,584.833 640.5,573.5 Z"/></g>
<g><path style="opacity:0.677" fill="#9791d4" d="M -0.5,547.5 C 0.223887,550.083 1.05722,552.749 2,555.5C 2.2798,572.26 3.11313,588.927 4.5,605.5C 2.10583,589.773 0.939162,573.773 1,557.5C 0.76791,556.263 0.26791,555.263 -0.5,554.5C -0.5,552.167 -0.5,549.833 -0.5,547.5 Z"/></g>
<g><path style="opacity:1" fill="#181918" d="M 742.5,607.5 C 753.5,607.5 764.5,607.5 775.5,607.5C 775.5,652.167 775.5,696.833 775.5,741.5C 764.5,741.5 753.5,741.5 742.5,741.5C 742.5,696.833 742.5,652.167 742.5,607.5 Z"/></g>
<g><path style="opacity:1" fill="#4b4686" d="M 775.5,606.5 C 786.833,606.5 798.167,606.5 809.5,606.5C 798.679,607.495 787.679,607.828 776.5,607.5C 776.832,652.336 776.499,697.003 775.5,741.5C 775.5,696.833 775.5,652.167 775.5,607.5C 775.5,607.167 775.5,606.833 775.5,606.5 Z"/></g>
<g><path style="opacity:0.037" fill="#f1f0f9" d="M -0.5,554.5 C 0.26791,555.263 0.76791,556.263 1,557.5C 0.939162,573.773 2.10583,589.773 4.5,605.5C 4.5,605.833 4.5,606.167 4.5,606.5C 6.31902,617.547 7.98569,628.547 9.5,639.5C 8.25025,639.423 7.41691,638.756 7,637.5C 2.89313,612.59 0.393126,587.59 -0.5,562.5C -0.5,559.833 -0.5,557.167 -0.5,554.5 Z"/></g>
<g><path style="opacity:0.522" fill="#aca7dc" d="M 4.5,606.5 C 6.06573,610.217 7.23239,614.217 8,618.5C 8.28521,627.001 9.11855,635.334 10.5,643.5C 10.1667,643.5 9.83333,643.5 9.5,643.5C 9.5,642.167 9.5,640.833 9.5,639.5C 7.98569,628.547 6.31902,617.547 4.5,606.5 Z"/></g>
<g><path style="opacity:1" fill="#fbaea2" d="M 607.5,640.5 C 618.5,640.5 629.5,640.5 640.5,640.5C 640.5,663.167 640.5,685.833 640.5,708.5C 629.5,708.5 618.5,708.5 607.5,708.5C 607.5,685.833 607.5,663.167 607.5,640.5 Z"/></g>
<g><path style="opacity:1" fill="#986b63" d="M 370.5,573.5 C 370.833,573.5 371.167,573.5 371.5,573.5C 371.5,595.833 371.5,618.167 371.5,640.5C 371.5,674.167 371.5,707.833 371.5,741.5C 382.679,741.172 393.679,741.505 404.5,742.5C 393.167,742.5 381.833,742.5 370.5,742.5C 370.5,742.167 370.5,741.833 370.5,741.5C 370.5,685.5 370.5,629.5 370.5,573.5 Z"/></g>
<g><path style="opacity:1" fill="#c97369" d="M 471.5,640.5 C 471.833,640.5 472.167,640.5 472.5,640.5C 483.5,640.5 494.5,640.5 505.5,640.5C 505.5,651.833 505.5,663.167 505.5,674.5C 494.167,674.5 482.833,674.5 471.5,674.5C 471.5,663.167 471.5,651.833 471.5,640.5 Z"/></g>
<g><path style="opacity:0.125" fill="#f0eff8" d="M 9.5,643.5 C 9.83333,643.5 10.1667,643.5 10.5,643.5C 11.2653,646.096 11.5987,648.763 11.5,651.5C 9.63105,649.365 8.96438,646.698 9.5,643.5 Z"/></g>
<g><path style="opacity:0.433" fill="#b4b0e0" d="M 10.5,643.5 C 11.1174,643.611 11.6174,643.944 12,644.5C 12.4983,647.817 12.665,651.15 12.5,654.5C 12.1667,654.5 11.8333,654.5 11.5,654.5C 11.5,653.5 11.5,652.5 11.5,651.5C 11.5987,648.763 11.2653,646.096 10.5,643.5 Z"/></g>
<g><path style="opacity:0.055" fill="#f6f5fb" d="M 11.5,654.5 C 11.8333,654.5 12.1667,654.5 12.5,654.5C 12.5,654.833 12.5,655.167 12.5,655.5C 13.038,657.117 13.3713,658.784 13.5,660.5C 11.6921,659.082 11.0254,657.082 11.5,654.5 Z"/></g>
<g><path style="opacity:0.631" fill="#9e98d7" d="M 17.5,672.5 C 18.9511,678.149 20.7844,683.815 23,689.5C 24.475,694.064 25.3084,698.73 25.5,703.5C 21.8809,693.494 19.2143,683.161 17.5,672.5 Z"/></g>
<g><path style="opacity:1" fill="#83584f" d="M 471.5,708.5 C 471.5,719.5 471.5,730.5 471.5,741.5C 460.5,741.5 449.5,741.5 438.5,741.5C 438.5,730.5 438.5,719.5 438.5,708.5C 449.5,708.5 460.5,708.5 471.5,708.5 Z"/></g>
<g><path style="opacity:0.702" fill="#9d97d6" d="M 37.5,737.5 C 38.5,737.5 39.5,737.5 40.5,737.5C 40.5,739.5 40.5,741.5 40.5,743.5C 39.5082,741.544 38.5082,739.544 37.5,737.5 Z"/></g>
<g><path style="opacity:1" fill="#a86f66" d="M 471.5,708.5 C 472.495,719.321 472.828,730.321 472.5,741.5C 472.5,741.833 472.5,742.167 472.5,742.5C 460.988,742.828 449.654,742.495 438.5,741.5C 449.5,741.5 460.5,741.5 471.5,741.5C 471.5,730.5 471.5,719.5 471.5,708.5 Z"/></g>
<g><path style="opacity:1" fill="#19191a" d="M 370.5,742.5 C 381.833,742.5 393.167,742.5 404.5,742.5C 404.5,764.833 404.5,787.167 404.5,809.5C 393.167,809.5 381.833,809.5 370.5,809.5C 370.5,787.167 370.5,764.833 370.5,742.5 Z"/></g>
<g><path style="opacity:1" fill="#c97369" d="M 472.5,741.5 C 506.167,741.5 539.833,741.5 573.5,741.5C 573.5,741.833 573.5,742.167 573.5,742.5C 573.5,753.5 573.5,764.5 573.5,775.5C 584.5,775.5 595.5,775.5 606.5,775.5C 606.833,775.5 607.167,775.5 607.5,775.5C 607.5,775.833 607.5,776.167 607.5,776.5C 596.167,776.5 584.833,776.5 573.5,776.5C 551.167,776.5 528.833,776.5 506.5,776.5C 506.5,787.5 506.5,798.5 506.5,809.5C 506.167,809.5 505.833,809.5 505.5,809.5C 505.5,798.167 505.5,786.833 505.5,775.5C 494.5,775.5 483.5,775.5 472.5,775.5C 472.5,764.5 472.5,753.5 472.5,742.5C 472.5,742.167 472.5,741.833 472.5,741.5 Z"/></g>
<g><path style="opacity:1" fill="#953938" d="M 573.5,742.5 C 584.5,742.5 595.5,742.5 606.5,742.5C 606.5,753.5 606.5,764.5 606.5,775.5C 606.5,764.5 606.5,753.5 606.5,742.5C 595.5,742.5 584.5,742.5 573.5,742.5 Z"/></g>
<g><path style="opacity:1" fill="#ae5752" d="M 573.5,742.5 C 573.5,742.167 573.5,741.833 573.5,741.5C 584.833,741.5 596.167,741.5 607.5,741.5C 607.5,752.833 607.5,764.167 607.5,775.5C 607.167,775.5 606.833,775.5 606.5,775.5C 606.5,764.5 606.5,753.5 606.5,742.5C 595.5,742.5 584.5,742.5 573.5,742.5 Z"/></g>
<g><path style="opacity:1" fill="#c97369" d="M 607.5,741.5 C 618.5,741.5 629.5,741.5 640.5,741.5C 640.5,752.833 640.5,764.167 640.5,775.5C 629.5,775.5 618.5,775.5 607.5,775.5C 607.5,764.167 607.5,752.833 607.5,741.5 Z"/></g>
<g><path style="opacity:1" fill="#febdad" d="M 674.5,742.5 C 674.5,753.5 674.5,764.5 674.5,775.5C 663.5,775.5 652.5,775.5 641.5,775.5C 641.5,764.5 641.5,753.5 641.5,742.5C 652.5,742.5 663.5,742.5 674.5,742.5 Z"/></g>
<g><path style="opacity:1" fill="#1a191a" d="M 708.5,742.5 C 719.833,742.5 731.167,742.5 742.5,742.5C 742.5,764.833 742.5,787.167 742.5,809.5C 731.167,809.5 719.833,809.5 708.5,809.5C 708.5,787.167 708.5,764.833 708.5,742.5 Z"/></g>
<g><path style="opacity:0.176" fill="#c5c1e7" d="M 42.5,748.5 C 43.1174,748.611 43.6174,748.944 44,749.5C 45.383,752.368 46.2163,755.368 46.5,758.5C 44.0595,755.73 42.7261,752.397 42.5,748.5 Z"/></g>
<g><path style="opacity:0.906" fill="#8c85cf" d="M 48.5,763.5 C 49.4959,763.414 50.3292,763.748 51,764.5C 54.4679,769.687 56.6346,775.353 57.5,781.5C 54.2064,775.707 51.2064,769.707 48.5,763.5 Z"/></g>
<g><path style="opacity:1" fill="#e49d91" d="M 640.5,741.5 C 652.012,741.172 663.346,741.505 674.5,742.5C 663.5,742.5 652.5,742.5 641.5,742.5C 641.5,753.5 641.5,764.5 641.5,775.5C 652.5,775.5 663.5,775.5 674.5,775.5C 663.679,776.495 652.679,776.828 641.5,776.5C 641.831,798.673 641.497,820.673 640.5,842.5C 640.5,820.5 640.5,798.5 640.5,776.5C 629.5,776.5 618.5,776.5 607.5,776.5C 607.5,776.167 607.5,775.833 607.5,775.5C 618.5,775.5 629.5,775.5 640.5,775.5C 640.5,764.167 640.5,752.833 640.5,741.5 Z"/></g>
<g><path style="opacity:0.064" fill="#f2f2fa" d="M 12.5,655.5 C 13.1174,655.611 13.6174,655.944 14,656.5C 14.5945,662.09 15.7612,667.424 17.5,672.5C 19.2143,683.161 21.8809,693.494 25.5,703.5C 27.102,709.952 29.602,715.952 33,721.5C 34.1823,726.893 35.6823,732.226 37.5,737.5C 38.5082,739.544 39.5082,741.544 40.5,743.5C 41.0241,745.306 41.6908,746.972 42.5,748.5C 42.7261,752.397 44.0595,755.73 46.5,758.5C 47.1667,760.167 47.8333,761.833 48.5,763.5C 51.2064,769.707 54.2064,775.707 57.5,781.5C 62.3073,791.781 67.6406,801.781 73.5,811.5C 76.3181,815.097 78.4847,819.097 80,823.5C 80.7083,824.381 81.5416,825.047 82.5,825.5C 83.8333,827.833 85.1667,830.167 86.5,832.5C 87.1098,833.391 87.4431,834.391 87.5,835.5C 86.7611,835.631 86.0944,835.464 85.5,835C 52.3396,783.915 28.5063,728.749 14,669.5C 13.502,666.518 13.3354,663.518 13.5,660.5C 13.3713,658.784 13.038,657.117 12.5,655.5 Z"/></g>
<g><path style="opacity:1" fill="#febcad" d="M 472.5,775.5 C 472.5,786.833 472.5,798.167 472.5,809.5C 483.5,809.5 494.5,809.5 505.5,809.5C 505.833,809.5 506.167,809.5 506.5,809.5C 528.833,809.5 551.167,809.5 573.5,809.5C 584.833,809.5 596.167,809.5 607.5,809.5C 607.5,798.5 607.5,787.5 607.5,776.5C 618.5,776.5 629.5,776.5 640.5,776.5C 640.5,798.5 640.5,820.5 640.5,842.5C 640.5,842.833 640.5,843.167 640.5,843.5C 618.167,843.5 595.833,843.5 573.5,843.5C 573.5,854.5 573.5,865.5 573.5,876.5C 562.167,876.5 550.833,876.5 539.5,876.5C 539.5,865.5 539.5,854.5 539.5,843.5C 517.167,843.5 494.833,843.5 472.5,843.5C 472.167,843.5 471.833,843.5 471.5,843.5C 460.5,843.5 449.5,843.5 438.5,843.5C 438.5,832.167 438.5,820.833 438.5,809.5C 438.5,798.167 438.5,786.833 438.5,775.5C 449.833,775.5 461.167,775.5 472.5,775.5 Z"/></g>
<g><path style="opacity:1" fill="#cf897d" d="M 472.5,775.5 C 483.5,775.5 494.5,775.5 505.5,775.5C 505.5,786.833 505.5,798.167 505.5,809.5C 494.5,809.5 483.5,809.5 472.5,809.5C 472.5,798.167 472.5,786.833 472.5,775.5 Z"/></g>
<g><path style="opacity:1" fill="#d67877" d="M 573.5,776.5 C 573.5,787.5 573.5,798.5 573.5,809.5C 551.167,809.5 528.833,809.5 506.5,809.5C 506.5,798.5 506.5,787.5 506.5,776.5C 528.833,776.5 551.167,776.5 573.5,776.5 Z"/></g>
<g><path style="opacity:1" fill="#d08a7e" d="M 573.5,776.5 C 584.833,776.5 596.167,776.5 607.5,776.5C 607.5,787.5 607.5,798.5 607.5,809.5C 596.167,809.5 584.833,809.5 573.5,809.5C 573.5,798.5 573.5,787.5 573.5,776.5 Z"/></g>
<g><path style="opacity:1" fill="#191919" d="M 404.5,809.5 C 415.5,809.5 426.5,809.5 437.5,809.5C 437.5,820.5 437.5,831.5 437.5,842.5C 426.5,842.5 415.5,842.5 404.5,842.5C 404.5,831.5 404.5,820.5 404.5,809.5 Z"/></g>
<g><path style="opacity:1" fill="#19191a" d="M 708.5,809.5 C 708.5,831.833 708.5,854.167 708.5,876.5C 697.167,876.5 685.833,876.5 674.5,876.5C 674.5,865.5 674.5,854.5 674.5,843.5C 674.5,832.167 674.5,820.833 674.5,809.5C 685.833,809.5 697.167,809.5 708.5,809.5 Z"/></g>
<g><path style="opacity:0.831" fill="#9b95d6" d="M 73.5,811.5 C 74.5,811.5 75.5,811.5 76.5,811.5C 78.4881,816.154 80.4881,820.821 82.5,825.5C 81.5416,825.047 80.7083,824.381 80,823.5C 78.4847,819.097 76.3181,815.097 73.5,811.5 Z"/></g>
<g><path style="opacity:0.965" fill="#8a83ce" d="M 86.5,832.5 C 88.0109,833.502 89.6776,834.169 91.5,834.5C 91.5838,837.327 92.2504,839.994 93.5,842.5C 91.7368,839.98 89.7368,837.647 87.5,835.5C 87.4431,834.391 87.1098,833.391 86.5,832.5 Z"/></g>
<g><path style="opacity:1" fill="#3d302e" d="M 437.5,809.5 C 437.833,809.5 438.167,809.5 438.5,809.5C 438.5,820.833 438.5,832.167 438.5,843.5C 427.167,843.5 415.833,843.5 404.5,843.5C 404.5,843.167 404.5,842.833 404.5,842.5C 415.5,842.5 426.5,842.5 437.5,842.5C 437.5,831.5 437.5,820.5 437.5,809.5 Z"/></g>
<g><path style="opacity:1" fill="#19191a" d="M 404.5,843.5 C 404.5,854.5 404.5,865.5 404.5,876.5C 393.167,876.5 381.833,876.5 370.5,876.5C 370.5,865.5 370.5,854.5 370.5,843.5C 381.833,843.5 393.167,843.5 404.5,843.5 Z"/></g>
<g><path style="opacity:1" fill="#83574f" d="M 404.5,843.5 C 415.833,843.5 427.167,843.5 438.5,843.5C 438.5,854.5 438.5,865.5 438.5,876.5C 427.167,876.5 415.833,876.5 404.5,876.5C 404.5,865.5 404.5,854.5 404.5,843.5 Z"/></g>
<g><path style="opacity:1" fill="#5a2a21" d="M 438.5,843.5 C 449.5,843.5 460.5,843.5 471.5,843.5C 471.5,854.5 471.5,865.5 471.5,876.5C 460.5,876.5 449.5,876.5 438.5,876.5C 438.5,865.5 438.5,854.5 438.5,843.5 Z"/></g>
<g><path style="opacity:1" fill="#5a2a21" d="M 641.5,843.5 C 652.5,843.5 663.5,843.5 674.5,843.5C 674.5,854.5 674.5,865.5 674.5,876.5C 663.5,876.5 652.5,876.5 641.5,876.5C 641.5,865.5 641.5,854.5 641.5,843.5 Z"/></g>
<g><path style="opacity:0.776" fill="#a59fd9" d="M 99.5,851.5 C 101.982,852.663 103.316,854.663 103.5,857.5C 101.808,855.795 100.475,853.795 99.5,851.5 Z"/></g>
<g><path style="opacity:1" fill="#181918" d="M 370.5,877.5 C 370.5,888.5 370.5,899.5 370.5,910.5C 348.167,910.5 325.833,910.5 303.5,910.5C 303.5,899.5 303.5,888.5 303.5,877.5C 325.833,877.5 348.167,877.5 370.5,877.5 Z"/></g>
<g><path style="opacity:1" fill="#8a5e57" d="M 370.5,876.5 C 381.833,876.5 393.167,876.5 404.5,876.5C 393.679,877.495 382.679,877.828 371.5,877.5C 371.5,888.5 371.5,899.5 371.5,910.5C 371.167,910.5 370.833,910.5 370.5,910.5C 370.5,899.5 370.5,888.5 370.5,877.5C 370.5,877.167 370.5,876.833 370.5,876.5 Z"/></g>
<g><path style="opacity:1" fill="#cf897d" d="M 404.5,876.5 C 415.833,876.5 427.167,876.5 438.5,876.5C 438.5,899.167 438.5,921.833 438.5,944.5C 494.833,944.5 551.167,944.5 607.5,944.5C 607.5,966.833 607.5,989.167 607.5,1011.5C 618.5,1011.5 629.5,1011.5 640.5,1011.5C 640.5,1022.83 640.5,1034.17 640.5,1045.5C 573.167,1045.5 505.833,1045.5 438.5,1045.5C 438.5,1034.17 438.5,1022.83 438.5,1011.5C 427.167,1011.5 415.833,1011.5 404.5,1011.5C 404.5,1000.5 404.5,989.5 404.5,978.5C 393.679,977.505 382.679,977.172 371.5,977.5C 371.5,955.167 371.5,932.833 371.5,910.5C 371.5,899.5 371.5,888.5 371.5,877.5C 382.679,877.828 393.679,877.495 404.5,876.5 Z"/></g>
<g><path style="opacity:1" fill="#83574f" d="M 471.5,843.5 C 471.833,843.5 472.167,843.5 472.5,843.5C 472.5,854.5 472.5,865.5 472.5,876.5C 494.833,876.5 517.167,876.5 539.5,876.5C 550.833,876.5 562.167,876.5 573.5,876.5C 595.833,876.5 618.167,876.5 640.5,876.5C 640.5,865.5 640.5,854.5 640.5,843.5C 640.833,843.5 641.167,843.5 641.5,843.5C 641.5,854.5 641.5,865.5 641.5,876.5C 652.5,876.5 663.5,876.5 674.5,876.5C 685.321,877.495 696.321,877.828 707.5,877.5C 707.5,910.833 707.5,944.167 707.5,977.5C 696.321,977.172 685.321,977.505 674.5,978.5C 674.5,1000.83 674.5,1023.17 674.5,1045.5C 663.167,1045.5 651.833,1045.5 640.5,1045.5C 640.5,1034.17 640.5,1022.83 640.5,1011.5C 629.5,1011.5 618.5,1011.5 607.5,1011.5C 607.5,989.167 607.5,966.833 607.5,944.5C 551.167,944.5 494.833,944.5 438.5,944.5C 438.5,921.833 438.5,899.167 438.5,876.5C 449.5,876.5 460.5,876.5 471.5,876.5C 471.5,865.5 471.5,854.5 471.5,843.5 Z"/></g>
<g><path style="opacity:1" fill="#cf8a7d" d="M 640.5,843.5 C 640.5,854.5 640.5,865.5 640.5,876.5C 618.167,876.5 595.833,876.5 573.5,876.5C 573.5,865.5 573.5,854.5 573.5,843.5C 595.833,843.5 618.167,843.5 640.5,843.5 Z"/></g>
<g><path style="opacity:1" fill="#cf8a7d" d="M 472.5,843.5 C 494.833,843.5 517.167,843.5 539.5,843.5C 539.5,854.5 539.5,865.5 539.5,876.5C 517.167,876.5 494.833,876.5 472.5,876.5C 472.5,865.5 472.5,854.5 472.5,843.5 Z"/></g>
<g><path style="opacity:1" fill="#5a2a21" d="M 472.5,877.5 C 528.5,877.5 584.5,877.5 640.5,877.5C 640.5,888.5 640.5,899.5 640.5,910.5C 584.5,910.5 528.5,910.5 472.5,910.5C 472.5,899.5 472.5,888.5 472.5,877.5 Z"/></g>
<g><path style="opacity:1" fill="#181918" d="M 708.5,877.5 C 730.833,877.5 753.167,877.5 775.5,877.5C 775.5,888.5 775.5,899.5 775.5,910.5C 753.167,910.5 730.833,910.5 708.5,910.5C 708.5,899.5 708.5,888.5 708.5,877.5 Z"/></g>
<g><path style="opacity:1" fill="#312f4e" d="M 303.5,910.5 C 303.5,910.833 303.5,911.167 303.5,911.5C 281.167,911.5 258.833,911.5 236.5,911.5C 236.5,922.5 236.5,933.5 236.5,944.5C 236.167,944.5 235.833,944.5 235.5,944.5C 235.5,933.167 235.5,921.833 235.5,910.5C 258.167,910.5 280.833,910.5 303.5,910.5 Z"/></g>
<g><path style="opacity:1" fill="#2f2d4b" d="M 775.5,911.5 C 775.5,911.167 775.5,910.833 775.5,910.5C 798.167,910.5 820.833,910.5 843.5,910.5C 843.5,921.833 843.5,933.167 843.5,944.5C 843.167,944.5 842.833,944.5 842.5,944.5C 842.5,933.5 842.5,922.5 842.5,911.5C 820.167,911.5 797.833,911.5 775.5,911.5 Z"/></g>
<g><path style="opacity:1" fill="#191919" d="M 303.5,911.5 C 303.5,922.5 303.5,933.5 303.5,944.5C 281.167,944.5 258.833,944.5 236.5,944.5C 236.5,933.5 236.5,922.5 236.5,911.5C 258.833,911.5 281.167,911.5 303.5,911.5 Z"/></g>
<g><path style="opacity:1" fill="#9a9d8a" d="M 303.5,910.5 C 325.833,910.5 348.167,910.5 370.5,910.5C 370.5,933.167 370.5,955.833 370.5,978.5C 381.833,978.5 393.167,978.5 404.5,978.5C 404.5,989.5 404.5,1000.5 404.5,1011.5C 404.5,1022.83 404.5,1034.17 404.5,1045.5C 404.5,1051.17 404.5,1056.83 404.5,1062.5C 339.026,1045.92 279.359,1017.92 225.5,978.5C 228.833,978.5 232.167,978.5 235.5,978.5C 235.5,967.167 235.5,955.833 235.5,944.5C 235.833,944.5 236.167,944.5 236.5,944.5C 258.833,944.5 281.167,944.5 303.5,944.5C 303.5,933.5 303.5,922.5 303.5,911.5C 303.5,911.167 303.5,910.833 303.5,910.5 Z"/></g>
<g><path style="opacity:1" fill="#bf8f80" d="M 370.5,910.5 C 370.833,910.5 371.167,910.5 371.5,910.5C 371.5,932.833 371.5,955.167 371.5,977.5C 382.679,977.172 393.679,977.505 404.5,978.5C 393.167,978.5 381.833,978.5 370.5,978.5C 370.5,955.833 370.5,933.167 370.5,910.5 Z"/></g>
<g><path style="opacity:1" fill="#705148" d="M 674.5,876.5 C 685.833,876.5 697.167,876.5 708.5,876.5C 708.5,876.833 708.5,877.167 708.5,877.5C 708.5,888.5 708.5,899.5 708.5,910.5C 708.5,933.167 708.5,955.833 708.5,978.5C 697.167,978.5 685.833,978.5 674.5,978.5C 685.321,977.505 696.321,977.172 707.5,977.5C 707.5,944.167 707.5,910.833 707.5,877.5C 696.321,877.828 685.321,877.495 674.5,876.5 Z"/></g>
<g><path style="opacity:1" fill="#535644" d="M 708.5,910.5 C 730.833,910.5 753.167,910.5 775.5,910.5C 775.5,910.833 775.5,911.167 775.5,911.5C 775.5,922.5 775.5,933.5 775.5,944.5C 797.833,944.5 820.167,944.5 842.5,944.5C 842.833,944.5 843.167,944.5 843.5,944.5C 843.5,955.833 843.5,967.167 843.5,978.5C 846.833,978.5 850.167,978.5 853.5,978.5C 789.875,1024.63 719.209,1054.96 641.5,1069.5C 640.508,1061.68 640.174,1053.68 640.5,1045.5C 651.833,1045.5 663.167,1045.5 674.5,1045.5C 674.5,1023.17 674.5,1000.83 674.5,978.5C 685.833,978.5 697.167,978.5 708.5,978.5C 708.5,955.833 708.5,933.167 708.5,910.5 Z"/></g>
<g><path style="opacity:1" fill="#191919" d="M 775.5,911.5 C 797.833,911.5 820.167,911.5 842.5,911.5C 842.5,922.5 842.5,933.5 842.5,944.5C 820.167,944.5 797.833,944.5 775.5,944.5C 775.5,933.5 775.5,922.5 775.5,911.5 Z"/></g>
<g><path style="opacity:0.804" fill="#9a94d5" d="M 153.5,916.5 C 156.833,917.833 159.167,920.167 160.5,923.5C 157.833,921.5 155.5,919.167 153.5,916.5 Z"/></g>
<g><path style="opacity:1" fill="#1c1b1c" d="M 183.5,944.5 C 200.833,944.5 218.167,944.5 235.5,944.5C 235.5,955.833 235.5,967.167 235.5,978.5C 232.167,978.5 228.833,978.5 225.5,978.5C 210.607,968.274 196.607,956.94 183.5,944.5 Z"/></g>
<g><path style="opacity:1" fill="#1a1a1a" d="M 843.5,944.5 C 861.167,944.5 878.833,944.5 896.5,944.5C 883.115,957.027 868.782,968.36 853.5,978.5C 850.167,978.5 846.833,978.5 843.5,978.5C 843.5,967.167 843.5,955.833 843.5,944.5 Z"/></g>
<g><path style="opacity:0.27" fill="#fbfafc" d="M 87.5,835.5 C 89.7368,837.647 91.7368,839.98 93.5,842.5C 95.2651,845.709 97.2651,848.709 99.5,851.5C 100.475,853.795 101.808,855.795 103.5,857.5C 118.695,878.366 135.361,898.032 153.5,916.5C 155.5,919.167 157.833,921.5 160.5,923.5C 167.841,930.841 175.508,937.841 183.5,944.5C 196.607,956.94 210.607,968.274 225.5,978.5C 279.359,1017.92 339.026,1045.92 404.5,1062.5C 414.665,1065.47 424.999,1067.8 435.5,1069.5C 460.294,1074.52 485.294,1077.85 510.5,1079.5C 499.5,1079.5 488.5,1079.5 477.5,1079.5C 467.509,1078.66 457.509,1077.5 447.5,1076C 434.631,1071.67 421.298,1068.5 407.5,1066.5C 382.184,1059.67 357.184,1051.51 332.5,1042C 305.776,1030.3 279.776,1016.97 254.5,1002C 245.681,995.731 237.014,989.231 228.5,982.5C 224.687,980.76 221.02,978.76 217.5,976.5C 216.147,975.476 215.48,974.143 215.5,972.5C 214.022,972.762 212.689,972.429 211.5,971.5C 163.233,934.235 122.233,890.235 88.5,839.5C 87.5713,838.311 87.238,836.978 87.5,835.5 Z"/></g>
<g><path style="opacity:1" fill="#855850" d="M 404.5,1011.5 C 415.833,1011.5 427.167,1011.5 438.5,1011.5C 438.5,1022.83 438.5,1034.17 438.5,1045.5C 427.167,1045.5 415.833,1045.5 404.5,1045.5C 404.5,1034.17 404.5,1022.83 404.5,1011.5 Z"/></g>
<g><path style="opacity:1" fill="#555745" d="M 404.5,1045.5 C 415.833,1045.5 427.167,1045.5 438.5,1045.5C 438.5,1053.5 438.5,1061.5 438.5,1069.5C 437.5,1069.5 436.5,1069.5 435.5,1069.5C 424.999,1067.8 414.665,1065.47 404.5,1062.5C 404.5,1056.83 404.5,1051.17 404.5,1045.5 Z"/></g>
<g><path style="opacity:1" fill="#855951" d="M 438.5,1045.5 C 505.833,1045.5 573.167,1045.5 640.5,1045.5C 640.174,1053.68 640.508,1061.68 641.5,1069.5C 617.675,1074.12 593.675,1077.46 569.5,1079.5C 549.833,1079.5 530.167,1079.5 510.5,1079.5C 485.294,1077.85 460.294,1074.52 435.5,1069.5C 436.5,1069.5 437.5,1069.5 438.5,1069.5C 438.5,1061.5 438.5,1053.5 438.5,1045.5 Z"/></g>
</svg>
